<svg width="109" height="107" viewBox="0 0 109 107" fill="none" xmlns="http://www.w3.org/2000/svg">
<path d="M11.3598 60.9888L9.17993 63.236" stroke="#7D9FAA" stroke-width="3"/>
<path d="M34 53.6855L37.79 47.6929M34 53.6855L42.3582 64.7065M34 53.6855C34 53.6855 20.5 53.5 19 53.6855M45.4195 34.5843L43.2941 38.236C37.9354 36.8315 22.5312 37.7305 12.7219 53.6855L19.5 53.6593M45.4195 34.5843C49.0525 30.0899 57.4086 20.3146 61.7682 17.1685C66.1279 14.0225 80.8418 7.05618 87.6538 3.96629M45.4195 34.5843L37.79 47.6929M87.6538 3.96629C90.7056 12.7303 100.551 19.4157 105.092 21.6629M87.6538 3.96629L97.3268 2.98315L107 2C107 2 106.791 6.72613 106.445 11.5506C106.105 16.2813 105.632 21.1066 105.092 21.6629M105.092 21.6629C102.822 28.9664 96.8636 45.5957 91.196 53.6855C88.177 57.9948 81.1066 63.3456 73.7573 68.1415M56.3187 78.4045C54.3205 77.5184 49.7791 73.9744 47.5993 71.382L46.2369 69.8652M56.3187 78.4045C58.0111 77.515 60.06 76.3956 62.3132 75.1105M56.3187 78.4045C56.3187 78.4045 57.4086 96.736 57.4086 98.736M73.7573 68.1415C76.3732 85.0997 63.7664 96.0944 57.4086 99.4719V98M73.7573 68.1415C69.8304 70.7041 65.8238 73.1083 62.3132 75.1105M46.2369 60.7079L37.79 47.6929M46.2369 60.7079L34.7928 72.5056C32.3405 75.3914 36.1552 79.809 38.6075 77.2809L57.6811 58.7416C60.4058 55.3708 56.3187 50.5955 53.0489 54.2472L46.2369 60.7079ZM62.3132 75.1105L51.3232 64.9213" stroke="#7D9FAA" stroke-width="3"/>
<ellipse cx="78.9346" cy="32.6179" rx="14.7139" ry="15.4494" fill="#0081E1"/>
<path d="M71.8501 39.9216C69.2161 38.4235 65.9644 30.7643 71.8499 24.4722M75.3922 23.0677C76.3913 22.5995 78.9344 21.9441 81.1143 23.0677" stroke="white" stroke-width="3"/>
<path d="M50.1428 86.5618L41.4234 80.1011C39.5161 83.6592 32.9085 87.6575 28.5488 83.1631C23.6442 78.1069 29.1619 72.0487 32.1592 70.2697L24.5297 61C18.2626 65.2135 11.1782 75.8876 10.3608 79.2584C9.70684 81.9551 8.77635 86.1873 9.04883 87.9663H14.448C12.9221 90.8876 13.2672 96.6742 13.6305 99.2022C17.5542 100.326 22.5315 98.7341 24.5297 97.7978V103.135H27.527C38.2082 103.584 47.0547 92.2734 50.1428 86.5618Z" fill="white" stroke="#0081E1" stroke-width="2"/>
<path d="M6.35967 94L2 99.0562M9.90191 102.708L7.44959 105.517" stroke="#0081E1" stroke-width="3"/>
<path d="M20.624 57.8989L14.3569 64.3596" stroke="#7D9FAA" stroke-width="2"/>
<path d="M22.804 48.3481L17.8994 53.9661L14.9021 57.6178" stroke="#0081E1" stroke-width="2"/>
<path d="M62.3134 89.0786L57.9537 93.573L57.4087 94.1348L49.7793 102" stroke="#0081E1" stroke-width="2"/>
</svg>
