<svg width="100" height="102" viewBox="0 0 100 102" fill="none" xmlns="http://www.w3.org/2000/svg">
<path d="M90.3439 97.9999V29.4565C90.3439 28.352 89.4485 27.4565 88.3439 27.4565H11.6621C10.5575 27.4565 9.66211 28.352 9.66211 29.4565V97.9999C9.66211 99.1045 10.5575 99.9999 11.6621 99.9999H88.3439C89.4485 99.9999 90.3439 99.1045 90.3439 97.9999Z" fill="white" stroke="#D9D9D9" stroke-width="4"/>
<path d="M31 33C26.1705 33 21.7833 29.2869 20.4575 27.7455C20.931 30.1539 23.3295 36 31 36C38.6705 36 39.5863 29.8649 39.7757 26.8784C38.734 28.8052 35.5511 33 31 33Z" fill="#B4B0B0" fill-opacity="0.65"/>
<path d="M10.5143 33.815C5.11659 33.815 3.12795 32.6589 0.855225 29.7687C1.32871 32.1772 4.2075 36.7051 10.7984 36.7051C17.3893 36.7051 20.7416 30.6358 20.4575 27.7456C19.3211 31.2138 16.4802 33.815 10.5143 33.815Z" fill="#B4B0B0" fill-opacity="0.65"/>
<path d="M49.7187 33.526C45.1679 33.4658 41.1137 30.3468 39.7757 26.8786C40.0993 29.3126 43.1278 35.8382 49.7187 35.8382C56.5551 35.8382 60.23 31.5029 59.6618 26.3007C59.0937 30.3469 54.8323 33.5936 49.7187 33.526Z" fill="#B4B0B0" fill-opacity="0.65"/>
<path d="M69.6023 32.9479C64.8973 32.9479 60.7955 29.1907 59.6622 26.3006C59.9836 28.8761 61.9518 34.7979 68.7501 35.26C75.5483 35.7221 79.5455 31.5026 79.5455 26.5894C77.8379 30.0575 75.5682 32.9479 69.6023 32.9479Z" fill="#B4B0B0" fill-opacity="0.65"/>
<path d="M89.7758 33.2368C85.2335 32.9479 80.4008 32.3697 79.5484 26.5894C79.2644 31.2136 82.9007 36.1269 89.4916 36.1269C96.0825 36.1269 99.4348 30.6356 99.4348 27.7454C98.0144 31.2136 94.3212 33.5258 89.7758 33.2368Z" fill="#B4B0B0" fill-opacity="0.65"/>
<path d="M60.2272 10.9827L55.1135 0H66.7613L78.409 10.6936L78.6931 25.4335C78.6931 27.7457 77.3863 32.6012 69.8863 32.3699C62.3863 32.1387 60.2272 27.6493 60.2272 25.4335V10.9827Z" fill="white"/>
<path d="M39.4887 10.9827L44.0342 0H33.5228L21.8751 10.9827L21.0228 25.4335C21.0228 27.7457 22.3296 32.6012 29.8296 32.3699C37.3296 32.1387 39.4887 28.2274 39.4887 26.0116V10.9827Z" fill="white"/>
<path d="M22.1621 0H32.6735L20.7417 10.9827L20.1735 25.4335C20.1735 28.3237 19.6622 33.0636 10.7986 33.526C1.93494 33.9884 -0.0915769 28.3237 0.00312007 25.4335V11.5607L22.1621 0Z" fill="#0081E1"/>
<path d="M99.9969 11.3523L77.6472 0H72.3463H67.0455L79.0799 10.7847L79.653 24.9751C79.653 27.8132 80.1687 32.4677 89.1085 32.9218C98.0484 33.3759 100.092 27.8132 99.9969 24.9751V11.3523Z" fill="#0081E1"/>
<path d="M44.3211 0L39.7756 11.2717V25.7225C40.0597 28.0347 43.1847 33.237 50.0029 33.237C56.8211 33.237 59.3779 28.2274 59.662 25.7225V11.2717L54.5484 0H44.3211Z" fill="#0081E1"/>
<path d="M23.4348 64.162C23.4348 65.7962 22.0241 67.2082 20.1735 67.2082C18.3228 67.2082 16.9121 65.7962 16.9121 64.162C16.9121 62.5278 18.3228 61.1157 20.1735 61.1157C22.0241 61.1157 23.4348 62.5278 23.4348 64.162Z" fill="white" stroke="#B5AFAF" stroke-width="2"/>
<path d="M82.5257 64.162C82.5257 65.7962 81.1149 67.2082 79.2643 67.2082C77.4136 67.2082 76.0029 65.7962 76.0029 64.162C76.0029 62.5278 77.4136 61.1157 79.2643 61.1157C81.1149 61.1157 82.5257 62.5278 82.5257 64.162Z" fill="white" stroke="#B5AFAF" stroke-width="2"/>
<rect x="41.4802" y="50.8672" width="30.1136" height="41.0405" rx="5" fill="#D9D9D9"/>
<rect x="35.2302" y="46.8208" width="28.9773" height="39.8844" rx="5" fill="#0081E1"/>
</svg>
