<svg width="102" height="103" viewBox="0 0 102 103" fill="none" xmlns="http://www.w3.org/2000/svg">
<path d="M4.52392 78.3229L34.2353 48.7876L79.4609 4.52156C81.444 2.58059 84.6283 2.62568 86.5556 4.62203L97.5928 16.0548C99.485 18.0148 99.4599 21.1287 97.5364 23.0579L93.6471 26.9587L83.9412 36.6932L74.8235 45.8378L36.5882 84.1858L27.1765 93.6254L23.3918 97.4212C21.4273 99.3915 18.2323 99.3791 16.2831 97.3936L4.48094 85.3717C2.55496 83.4099 2.57416 80.2611 4.52392 78.3229Z" fill="white"/>
<path d="M93.6471 26.9587L97.5364 23.0579C99.4599 21.1287 99.485 18.0148 97.5928 16.0548L86.5556 4.62203C84.6283 2.62568 81.444 2.58059 79.4609 4.52156L34.2353 48.7876L4.52392 78.3229C2.57416 80.2611 2.55496 83.4099 4.48094 85.3717L16.2831 97.3936C18.2323 99.3791 21.4273 99.3915 23.3918 97.4212L27.1765 93.6254M93.6471 26.9587L86.8824 19.5841M93.6471 26.9587L83.9412 36.6932M83.9412 36.6932L80.1176 32.2684M83.9412 36.6932L74.8235 45.8378M74.8235 45.8378L67.4706 39.0531M74.8235 45.8378L36.5882 84.1858M45.4118 74.1563L41.5882 70.3215M36.5882 84.1858L28.6471 75.6313M36.5882 84.1858L27.1765 93.6254M27.1765 93.6254L22.7647 89.4956" stroke="#0081E1" stroke-width="2"/>
<path d="M73.9517 88.8823L88.9161 74.291C95.1513 79.2583 106.437 88.3856 97.9571 97.5751C89.4773 106.764 79.2516 95.4019 73.9517 88.8823Z" fill="#0081E1" stroke="#7D9FAA" stroke-width="2"/>
<path d="M8.48224 23.677L1.62354 1.63477L22.8232 9.08566L89.2279 74.5914L74.2635 89.1828L8.48224 23.677Z" fill="white"/>
<path d="M8.48224 23.677L1.62354 1.63477L22.8232 9.08566M8.48224 23.677L22.8232 9.08566M8.48224 23.677L74.2635 89.1828C74.2635 89.1828 83.3839 80.2897 89.2279 74.5914C63.2952 49.0098 22.8232 9.08566 22.8232 9.08566" stroke="#7D9FAA" stroke-width="2"/>
<path d="M9.41745 9.07938C11.4586 7.38551 11.288 5.97484 11.6314 4.86355L9.81851 4.21846L8.00567 3.57331L6.73861 5.37115L3.17998 7.7408L4.11755 10.6316C4.42931 10.9421 6.49398 11.5054 9.41745 9.07938Z" fill="#828F99"/>
<path d="M1 1L3.80583 9.69271C4.74111 9.38225 6.92343 8.60612 7.8587 7.9076C8.79398 7.20908 9.10574 6.89862 10.3528 4.41499L1 1Z" fill="#0081E1"/>
</svg>
