<svg width="80" height="100" viewBox="0 0 80 100" fill="none" xmlns="http://www.w3.org/2000/svg">
<path d="M0.601563 4.59753C0.601563 2.38846 2.39278 0.597656 4.60236 0.597656L75.4014 0.597656C77.611 0.597656 79.4022 2.38846 79.4022 4.59753V95.3987C79.4022 97.6078 77.611 99.3986 75.4014 99.3986H4.60236C2.39278 99.3986 0.601563 97.6078 0.601563 95.3987L0.601563 4.59753Z" fill="white"/>
<path fill-rule="evenodd" clip-rule="evenodd" d="M0 4.59941C0 2.05923 2.0597 0 4.60046 0L75.3995 0C77.9403 0 80 2.05922 80 4.5994V95.4006C80 97.9408 77.9403 100 75.3995 100H4.60047C2.0597 100 0 97.9408 0 95.4006L0 4.59941ZM4.60046 1.19906C2.72207 1.19906 1.19934 2.72145 1.19934 4.59941L1.19934 95.4006C1.19934 97.2786 2.72207 98.8009 4.60047 98.8009H75.3995C77.2779 98.8009 78.8007 97.2786 78.8007 95.4006V4.5994C78.8007 2.72144 77.2779 1.19906 75.3995 1.19906L4.60046 1.19906Z" fill="#0081E1"/>
<path d="M0.601563 4.59753C0.601563 2.38846 2.39278 0.597656 4.60236 0.597656L75.4014 0.597656C77.611 0.597656 79.4022 2.38846 79.4022 4.59753V14.1586L0.601563 14.1586L0.601563 4.59753Z" fill="#0081E1"/>
<path d="M12.8718 7.37857C12.8718 8.98346 11.5704 10.2845 9.96518 10.2845C8.35991 10.2845 7.05859 8.98346 7.05859 7.37857C7.05859 5.77368 8.35991 4.47266 9.96518 4.47266C11.5704 4.47266 12.8718 5.77368 12.8718 7.37857Z" fill="white"/>
<path d="M22.5593 7.37857C22.5593 8.98346 21.2579 10.2845 19.6527 10.2845C18.0474 10.2845 16.7461 8.98346 16.7461 7.37857C16.7461 5.77368 18.0474 4.47266 19.6527 4.47266C21.2579 4.47266 22.5593 5.77368 22.5593 7.37857Z" fill="white"/>
<path d="M32.2507 7.37857C32.2507 8.98346 30.9493 10.2845 29.3441 10.2845C27.7388 10.2845 26.4375 8.98346 26.4375 7.37857C26.4375 5.77368 27.7388 4.47266 29.3441 4.47266C30.9493 4.47266 32.2507 5.77368 32.2507 7.37857Z" fill="white"/>
<path fill-rule="evenodd" clip-rule="evenodd" d="M52.9174 25.0936H11.9023V23.8945L52.9174 23.8945V25.0936Z" fill="#E7E8FF"/>
<path fill-rule="evenodd" clip-rule="evenodd" d="M52.9174 67.0662H11.9023V65.8672H52.9174V67.0662Z" fill="#E7E8FF"/>
<path fill-rule="evenodd" clip-rule="evenodd" d="M52.9174 78.6912H11.9023V77.4922H52.9174V78.6912Z" fill="#E7E8FF"/>
<path fill-rule="evenodd" clip-rule="evenodd" d="M12.2734 37.533C12.2734 34.9928 14.3331 32.9336 16.8739 32.9336H56.6694C59.2102 32.9336 61.2699 34.9928 61.2699 37.533V52.7805C61.2699 55.3207 59.2102 57.3799 56.6694 57.3799H16.8739C14.3331 57.3799 12.2734 55.3207 12.2734 52.7805L12.2734 37.533ZM16.8739 34.1327C14.9955 34.1327 13.4728 35.655 13.4728 37.533V52.7805C13.4728 54.6585 14.9955 56.1809 16.8739 56.1809L56.6694 56.1809C58.5478 56.1809 60.0706 54.6585 60.0706 52.7805V37.533C60.0706 35.655 58.5478 34.1327 56.6694 34.1327H16.8739Z" fill="#FFCE20"/>
<path d="M36.125 88.5467C36.125 86.3377 37.9162 84.5469 40.1258 84.5469H40.521C42.7306 84.5469 44.5218 86.3377 44.5218 88.5467V88.9419C44.5218 91.1509 42.7306 92.9417 40.521 92.9417H40.1258C37.9162 92.9417 36.125 91.1509 36.125 88.9419V88.5467Z" fill="#FFCE20"/>
<path fill-rule="evenodd" clip-rule="evenodd" d="M51.0273 88.5486C51.0273 86.0084 53.087 83.9492 55.6278 83.9492H56.023C58.5638 83.9492 60.6235 86.0084 60.6235 88.5486V88.9437C60.6235 91.4839 58.5638 93.5431 56.023 93.5431H55.6278C53.087 93.5431 51.0273 91.4839 51.0273 88.9437V88.5486ZM55.6278 85.1483C53.7494 85.1483 52.2267 86.6707 52.2267 88.5486V88.9437C52.2267 90.8217 53.7494 92.3441 55.6278 92.3441H56.023C57.9014 92.3441 59.4241 90.8217 59.4241 88.9437V88.5486C59.4241 86.6707 57.9014 85.1483 56.023 85.1483H55.6278Z" fill="#E7E8FF"/>
<path fill-rule="evenodd" clip-rule="evenodd" d="M29.9757 39.7618C29.2535 38.6233 27.582 38.653 26.9007 39.8165L21.8348 48.4688C21.2966 49.3881 20.3111 49.953 19.2456 49.953H12.8711V48.7539H19.2456C19.8851 48.7539 20.4767 48.4149 20.7998 47.8631L25.8657 39.2108C27.0006 37.2724 29.7854 37.2229 30.9885 39.1197L35.4671 46.1804C36.1308 47.2268 37.6287 47.3058 38.3988 46.335L42.0103 41.7825C43.1437 40.3536 45.2797 40.2583 46.536 41.5804L50.0587 45.2877C50.3986 45.6455 50.8706 45.848 51.3643 45.848H60.3453V47.0471H51.3643C50.5419 47.0471 49.7556 46.7096 49.1891 46.1135L45.6665 42.4063C44.9124 41.6127 43.6303 41.6699 42.9499 42.5275L39.3385 47.0801C38.0555 48.6974 35.56 48.5658 34.4542 46.8226L29.9757 39.7618Z" fill="#FFCE20"/>
</svg>
