<svg width="110" height="110" viewBox="0 0 110 110" fill="none" xmlns="http://www.w3.org/2000/svg">
<path d="M50.5304 30.3031C67.2129 14.0138 85.0667 13.9638 93.0729 16.2144C93.8191 16.4242 94.4801 17.1243 94.6559 17.891C96.5421 26.1173 95.768 44.2562 79.0855 60.5455C68.1814 71.1926 51.0548 77.8035 42.9308 80.0624C42.3351 80.228 41.5683 79.9263 40.9927 79.3167L35.7663 73.7815L30.5399 68.2463C29.9644 67.6367 29.699 66.8453 29.886 66.2467C32.4354 58.0838 39.6264 40.9502 50.5304 30.3031Z" fill="white"/>
<path fill-rule="evenodd" clip-rule="evenodd" d="M94.0921 17.8229C93.983 17.3471 93.5789 16.9191 93.1158 16.7889C85.3092 14.5945 67.5995 14.5881 50.9973 30.799C40.1521 41.3886 32.9841 58.4568 30.4432 66.5922C30.3215 66.982 30.4916 67.5035 30.8791 67.914L41.3319 78.9844C41.7195 79.3949 42.2249 79.5888 42.6128 79.481C50.7095 77.2296 67.7709 70.6395 78.6161 60.0498C95.2183 43.8389 95.9312 25.8441 94.0921 17.8229ZM93.0277 15.6401C94.0569 15.9294 94.9748 16.9016 95.2173 17.9591C97.1505 26.3907 96.3152 44.6736 79.5524 61.0414C68.5896 71.7457 51.3978 78.3774 43.2463 80.6439C42.4429 80.8673 41.4146 80.4578 40.6511 79.6492L30.1983 68.5787C29.4348 67.7701 29.0742 66.7086 29.3263 65.9013C31.8843 57.7108 39.0984 40.5118 50.0611 29.8074C66.8239 13.4397 84.8217 13.3333 93.0277 15.6401Z" fill="#0081E1"/>
<path d="M22.9207 74.0399C26.5267 72.2648 30.3138 74.2414 32.6725 76.7395C39.32 83.7798 34.0373 89.3099 29.1513 92.3994C25.223 94.8834 20.4121 93.9557 16.9707 92.8867C16.3521 92.6946 15.9985 91.4878 16.446 91.2323C18.778 89.9009 21.4167 87.0902 21.8604 84.6777C22.2395 82.6163 20.4581 81.4142 19.0902 80.9897C18.6723 80.86 18.2743 80.3871 18.3566 80.0191C18.7397 78.3069 19.857 75.5481 22.9207 74.0399Z" fill="#FFCE20"/>
<path d="M83.0045 26.7983C79.6565 23.2524 77.9318 19.4108 77.2463 17.1501C77.0246 16.4189 77.3358 15.84 77.9485 15.7112C82.9577 14.658 88.8784 15.1528 92.8288 16.0584C93.5874 16.2323 94.3048 16.9252 94.5169 17.7121C95.9939 23.193 95.2794 29.5124 94.5397 33.0869C94.392 33.8006 93.6974 34.0988 92.8958 33.7434C90.4071 32.6399 86.3387 30.3294 83.0045 26.7983Z" fill="#0081E1"/>
<path d="M29.2997 48.4092C31.5924 47.2572 35.2691 46.0535 37.8567 45.2916C38.3557 45.1447 38.9865 45.9194 38.7253 46.3506C35.666 51.4013 31.5894 60.9358 29.9487 66.4485C29.9083 66.5843 29.8073 66.6716 29.6669 66.6963L16.1222 69.0789C15.6322 69.1651 15.0851 68.4753 15.3232 68.0703C19.254 61.3822 26.5309 49.8005 29.2997 48.4092Z" fill="#0081E1"/>
<path d="M60.438 81.3904C61.6723 79.1672 63.0417 75.6116 63.9397 73.0657C64.1163 72.5651 63.37 71.8779 62.9335 72.1327C57.8743 75.0853 48.5448 78.9522 43.1895 80.4868C43.0622 80.5233 42.9766 80.6172 42.9451 80.7508L39.8074 94.0511C39.6904 94.5471 40.3559 95.1461 40.7661 94.9121C47.4372 91.1069 58.9313 84.1041 60.438 81.3904Z" fill="#0081E1"/>
<path d="M28.5512 80.6452C35.3093 72.7874 42.0112 66.3106 50.0402 58.4166C50.2279 58.232 50.592 58.3035 50.851 58.5778L51.6847 59.4608C51.9414 59.7327 51.9985 60.1021 51.8144 60.2871C43.592 68.5467 36.8105 75.4687 29.3415 81.4905C28.8898 81.8547 28.1719 81.0862 28.5512 80.6452Z" fill="#0081E1"/>
<path d="M67.5029 54.4722C74.654 54.4722 80.4511 48.3853 80.4511 40.8767C80.4511 33.3682 74.654 27.2812 67.5029 27.2812C60.3518 27.2812 54.5547 33.3682 54.5547 40.8767C54.5547 48.3853 60.3518 54.4722 67.5029 54.4722Z" fill="#0081E1"/>
<path d="M61.2708 47.3071C58.9528 45.9888 56.0913 39.2487 61.2706 33.7116M64.3878 32.4756C65.267 32.0636 67.5049 31.4869 69.4233 32.4756" stroke="white" stroke-width="3"/>
</svg>
