<svg width="359" height="42" viewBox="0 0 359 42" fill="none" xmlns="http://www.w3.org/2000/svg">
<path d="M21.3776 12.4034C21.9626 11.9079 23.4592 11.3061 23.4592 11.3061C23.4592 11.3061 21.8305 11.4891 21.111 10.3895C20.9652 10.1667 20.8715 9.86247 20.826 9.53536C20.7336 8.87183 20.8394 8.11433 21.111 7.75225C22.1773 6.3307 26.6071 5.11498 29.9903 5.38304C32.1333 5.55284 32.5101 7.47527 33.4274 9.20494C33.9789 8.55728 34.8396 7.54649 34.8396 7.54649C34.8396 7.54649 34.5697 6.07898 33.4274 4.82189C31.1417 2.30641 27.8086 1.21929 24.1767 1.03114C20.6708 0.849507 18.6126 1.47025 15.3798 2.68959C12.4691 3.78741 12.199 5.97768 9.11529 6.59879C7.13547 6.99755 3.38395 6.59879 3.38395 6.59879C3.38395 6.59879 4.99225 7.99153 6.31626 8.25724C7.17941 8.43047 8.58214 8.25724 8.58214 8.25724L13.5138 7.90187C13.5138 7.90187 8.11501 8.93667 6.31626 10.7449C5.1822 11.885 4.63491 12.4079 4.05038 13.7064C3.57639 14.7594 2.85081 16.5495 2.85081 16.5495C2.85081 16.5495 2.36671 19.1784 2.18437 20.9325C2.06944 22.0381 2 23.626 2 23.626C2 23.626 4.28938 20.3091 5.24997 19.8664C6.82757 19.3052 9.28968 18.4293 9.28968 18.4293L13.4627 17.1106C15.0621 16.8737 15.3139 16.8069 17.1125 16.5495C18.683 16.3247 22.1263 16.5495 22.1263 16.5495C22.1263 16.5495 20.575 14.3973 20.7112 13.7064C20.8198 13.1558 20.9223 12.789 21.3776 12.4034Z" fill="#E42929"/>
<path d="M34.8391 15.4836C34.4112 14.7327 32.968 14.3292 32.2556 13.7066C31.303 12.874 31.107 11.9297 31.107 11.9297C29.977 11.9297 28.8146 12.2218 28.1068 13.1027C27.7301 13.5715 27.4077 14.1485 27.375 14.7728V17.7343C27.375 17.7343 29.9985 17.6688 31.4559 17.2293C32.9134 16.7898 34.8391 15.4836 34.8391 15.4836Z" fill="#E42929"/>
<path d="M38.0384 13.351C37.8261 10.8339 34.8395 7.54639 34.8395 7.54639C34.8395 7.54639 33.9788 8.55718 33.4273 9.20484C32.5214 10.2689 31.1074 11.9294 31.1074 11.9294C31.1074 11.9294 31.3034 12.8737 32.256 13.7063C32.9684 14.3289 34.4116 14.7324 34.8395 15.4833C35.7175 17.0241 35.5882 19.1244 35.5882 19.1244C35.5882 19.1244 38.2647 16.0354 38.0384 13.351Z" fill="#E42929"/>
<path d="M27.3757 17.7342L22.793 16.9923L21.3778 17.7342L22.1265 16.5496C22.1265 16.5496 18.6832 16.3248 17.1127 16.5496C15.3141 16.807 15.0623 16.8738 13.4629 17.1107C13.4629 17.1107 13.9469 19.3206 14.7957 20.3092C15.6446 21.2977 18.7944 21.8492 18.7944 21.8492C18.7944 21.8492 22.6298 21.9464 25.1921 23.5076C26.073 24.0443 26.6583 24.3368 26.6583 24.3368C26.6583 24.3368 27.6922 22.5211 27.8579 21.2569C28.0382 19.8803 27.3757 17.7342 27.3757 17.7342Z" fill="#E42929"/>
<path d="M28.1077 13.1025C28.8155 12.2216 29.9779 11.9295 31.1079 11.9295C31.1079 11.9295 32.5219 10.269 33.4278 9.20493C32.5105 7.47526 32.1337 5.55283 29.9907 5.38303C26.6075 5.11497 22.1777 6.33069 21.1114 7.75224C20.8398 8.11432 20.734 8.87182 20.8264 9.53535L21.1114 10.3895L23.4596 11.3061C23.4596 11.3061 21.963 11.9079 21.378 12.4034C20.9227 12.789 20.8202 13.1558 20.7116 13.7064C20.5754 14.3973 22.1267 16.5495 22.1267 16.5495L21.378 17.7341L22.7932 16.9922L27.3759 17.7341V14.7726C27.4086 14.1483 27.731 13.5713 28.1077 13.1025Z" fill="#E42929"/>
<path d="M5.25014 19.8666C5.09234 20.0843 4.94752 20.2905 4.81432 20.4879C2.06461 24.5628 3.44037 30.0612 6.71629 33.7265C9.22181 36.5298 16.795 39.1445 16.795 39.1445C16.795 39.1445 14.7859 36.5916 14.515 34.8799C14.198 32.8769 14.0226 30.8614 14.515 29.3123C15.38 23.6262 17.1232 24.7638 18.7944 21.8493C18.7944 21.8493 15.6446 21.2978 14.7957 20.3093C13.9469 19.3207 13.4629 17.1108 13.4629 17.1108C12.0575 17.7585 10.607 18.0348 9.28985 18.4295L5.25014 19.8666Z" fill="#E42929"/>
<path d="M25.1927 23.5075C22.6304 21.9463 18.795 21.8491 18.795 21.8491C17.1238 24.7636 15.3806 23.626 14.5156 29.3121L15.3806 34.8797C15.3806 34.8797 16.9538 36.8482 18.2618 37.8412C21.5911 40.3688 24.5724 40.4962 28.9248 40.9212C34.0397 41.4207 41.9869 39.3812 41.9869 39.3812C41.9869 39.3812 37.3256 37.452 34.8404 35.5905C30.3385 32.2185 26.6589 24.3367 26.6589 24.3367C26.6589 24.3367 26.0736 24.0442 25.1927 23.5075Z" fill="#E42929"/>
<path d="M34.8396 7.54649C34.8396 7.54649 37.8262 10.834 38.0385 13.3511C38.2648 16.0355 35.5883 19.1245 35.5883 19.1245C35.5883 19.1245 35.7176 17.0242 34.8396 15.4834M34.8396 7.54649C34.8396 7.54649 33.9789 8.55728 33.4274 9.20494M34.8396 7.54649C34.8396 7.54649 34.5697 6.07898 33.4274 4.82189C31.1417 2.30641 27.8086 1.21929 24.1767 1.03114C20.6708 0.849507 18.6126 1.47025 15.3798 2.68959C12.4691 3.78741 12.199 5.97768 9.11529 6.59879C7.13547 6.99755 3.38395 6.59879 3.38395 6.59879C3.38395 6.59879 4.99225 7.99153 6.31626 8.25724C7.17941 8.43047 8.58214 8.25724 8.58214 8.25724L13.5138 7.90187C13.5138 7.90187 8.11501 8.93667 6.31626 10.7449C5.1822 11.885 4.63491 12.4079 4.05038 13.7064C3.57639 14.7594 2.85081 16.5495 2.85081 16.5495C2.85081 16.5495 2.36671 19.1784 2.18437 20.9325C2.06944 22.0381 2 23.626 2 23.626C2 23.626 4.28938 20.3091 5.24997 19.8664M34.8396 15.4834C34.4117 14.7325 32.9685 14.329 32.2561 13.7064C31.3035 12.8738 31.1075 11.9295 31.1075 11.9295M34.8396 15.4834C34.8396 15.4834 32.9139 16.7896 31.4564 17.2291C29.999 17.6686 27.3755 17.7341 27.3755 17.7341M33.4274 9.20494C32.5215 10.269 31.1075 11.9295 31.1075 11.9295M33.4274 9.20494C32.5101 7.47527 32.1333 5.55284 29.9903 5.38304C26.6071 5.11498 22.1773 6.3307 21.111 7.75225M5.24997 19.8664C5.09217 20.0841 4.94735 20.2903 4.81415 20.4877C2.06444 24.5626 3.4402 30.061 6.71612 33.7263C9.22164 36.5296 16.7948 39.1443 16.7948 39.1443C16.7948 39.1443 14.7857 36.5914 14.5148 34.8797C14.1978 32.8767 14.0224 30.8612 14.5148 29.3121M5.24997 19.8664C8.06076 18.5711 10.6519 18.406 13.4627 17.1106M5.24997 19.8664C6.82757 19.3052 9.28968 18.4293 9.28968 18.4293M5.24997 19.8664L9.28968 18.4293M31.1075 11.9295C29.9775 11.9295 28.8151 12.2216 28.1073 13.1025C27.7306 13.5713 27.4082 14.1483 27.3755 14.7726M27.3755 17.7341C27.3755 16.5776 27.3755 14.7726 27.3755 14.7726M27.3755 17.7341C25.3455 17.2715 22.7928 16.9922 22.7928 16.9922M27.3755 17.7341V14.7726M27.3755 17.7341C27.3755 17.7341 28.038 19.8802 27.8577 21.2568C27.692 22.521 26.6581 24.3367 26.6581 24.3367M27.3755 17.7341L22.7928 16.9922M22.7928 16.9922L21.3776 17.7341L22.1263 16.5495M26.6581 24.3367C26.6581 24.3367 26.0728 24.0442 25.1919 23.5075C22.6296 21.9463 18.7942 21.8491 18.7942 21.8491M26.6581 24.3367C26.6581 24.3367 30.3377 32.2185 34.8396 35.5905C37.3248 37.452 41.9861 39.3812 41.9861 39.3812C41.9861 39.3812 34.0389 41.4207 28.924 40.9212C24.5716 40.4962 21.5903 40.3688 18.261 37.8412C16.953 36.8482 15.3798 34.8797 15.3798 34.8797L14.5148 29.3121M22.1263 16.5495C22.1263 16.5495 20.575 14.3973 20.7112 13.7064C20.8198 13.1558 20.9223 12.789 21.3776 12.4034C21.9626 11.9079 23.4592 11.3061 23.4592 11.3061M22.1263 16.5495C22.1263 16.5495 18.683 16.3247 17.1125 16.5495C15.3139 16.8069 15.0621 16.8737 13.4627 17.1106M23.4592 11.3061C23.4592 11.3061 21.8305 11.4891 21.111 10.3895M23.4592 11.3061L21.111 10.3895M21.111 10.3895L20.826 9.53536M21.111 10.3895C20.9652 10.1667 20.8715 9.86247 20.826 9.53536M21.111 7.75225L20.7112 7.54649L20.826 9.53536M21.111 7.75225C20.8394 8.11433 20.7336 8.87183 20.826 9.53536M14.5148 29.3121C15.3798 23.626 17.123 24.7636 18.7942 21.8491M13.4627 17.1106C13.4627 17.1106 13.9467 19.3205 14.7955 20.3091C15.6444 21.2976 18.7942 21.8491 18.7942 21.8491M13.4627 17.1106L9.28968 18.4293M13.4627 17.1106C12.0573 17.7583 10.6068 18.0346 9.28968 18.4293" stroke="#000D1C" stroke-width="2"/>
<path d="M28.0646 13.0214C28.7724 12.1405 29.9348 11.8485 31.0649 11.8485C31.0649 11.8485 32.4788 10.1879 33.3848 9.12387C32.4675 7.3942 32.0906 5.47177 29.9476 5.30197C26.5644 5.03391 22.1346 6.24963 21.0683 7.67118C20.7968 8.03326 20.6909 8.79076 20.7833 9.45429L21.0683 10.3085L23.4165 11.225C23.4165 11.225 21.9199 11.8268 21.3349 12.3223C20.8796 12.7079 20.7772 13.0748 20.6686 13.6253C20.5323 14.3162 22.0837 16.4684 22.0837 16.4684L21.3349 17.653L22.7501 16.9111C22.7501 16.9111 25.5432 17.3633 27.3328 17.653C27.3328 16.4965 27.3328 14.6915 27.3328 14.6915C27.3655 14.0672 27.6879 13.4902 28.0646 13.0214Z" fill="white"/>
<path d="M27.3328 17.653C27.3328 16.4965 27.3328 14.6915 27.3328 14.6915C27.3655 14.0672 27.6879 13.4902 28.0646 13.0214C28.7724 12.1405 29.9348 11.8485 31.0649 11.8485C31.0649 11.8485 32.4788 10.1879 33.3848 9.12387C32.4675 7.3942 32.0906 5.47177 29.9476 5.30197C26.5644 5.03391 22.1346 6.24963 21.0683 7.67118M27.3328 17.653C25.3028 17.1904 22.7501 16.9111 22.7501 16.9111M27.3328 17.653C25.5432 17.3633 22.7501 16.9111 22.7501 16.9111M21.0683 7.67118L20.6686 7.46542L20.7833 9.45429M21.0683 7.67118C20.7968 8.03326 20.6909 8.79076 20.7833 9.45429M22.7501 16.9111L21.3349 17.653L22.0837 16.4684C22.0837 16.4684 20.5323 14.3162 20.6686 13.6253C20.7772 13.0748 20.8796 12.7079 21.3349 12.3223C21.9199 11.8268 23.4165 11.225 23.4165 11.225M23.4165 11.225C23.4165 11.225 21.7879 11.4081 21.0683 10.3085M23.4165 11.225L21.0683 10.3085M21.0683 10.3085L20.7833 9.45429M21.0683 10.3085C20.9226 10.0857 20.8288 9.7814 20.7833 9.45429" stroke="#000D1C" stroke-width="2"/>
<path d="M35.0558 15.0968C34.628 14.346 33.1847 13.9424 32.4724 13.3198C31.5198 12.4872 31.3238 11.543 31.3238 11.543C30.1938 11.543 29.0313 11.835 28.3235 12.7159C27.9468 13.1847 27.6245 13.7617 27.5918 14.386V17.3475C27.5918 17.3475 30.2152 17.282 31.6727 16.8425C33.1301 16.403 35.0558 15.0968 35.0558 15.0968Z" fill="#F18200"/>
<path d="M38.2532 12.9643C38.041 10.4472 37.1618 8.85173 35.0543 7.15967C34.5029 7.80734 34.1937 8.17046 33.6422 8.81812C32.7362 9.88214 31.3223 11.5428 31.3223 11.5428C31.3223 11.5428 31.5183 12.487 32.4709 13.3196C33.1832 13.9422 34.6265 14.3458 35.0543 15.0966C35.9324 16.6375 35.8031 18.7377 35.8031 18.7377C35.8031 18.7377 38.4795 15.6487 38.2532 12.9643Z" fill="#F18200"/>
<path d="M35.0558 15.0966C35.9339 16.6375 35.8046 18.7377 35.8046 18.7377C35.8046 18.7377 38.481 15.6487 38.2547 12.9643C38.0425 10.4472 37.1633 8.85173 35.0558 7.15967C34.5044 7.80734 34.1952 8.17046 33.6437 8.81812C32.7377 9.88214 31.3238 11.5428 31.3238 11.5428M35.0558 15.0966C34.628 14.3458 33.1847 13.9422 32.4724 13.3196C31.5198 12.487 31.3238 11.5428 31.3238 11.5428M35.0558 15.0966C35.0558 15.0966 33.1301 16.4028 31.6727 16.8423C30.2152 17.2818 27.5918 17.3473 27.5918 17.3473M31.3238 11.5428C30.1938 11.5428 29.0313 11.8348 28.3235 12.7157C27.9468 13.1845 27.6245 13.7615 27.5918 14.3858M27.5918 17.3473C27.5918 16.1908 27.5918 14.3858 27.5918 14.3858M27.5918 17.3473V14.3858" stroke="#000D1C" stroke-width="2"/>
<path d="M22.1263 11.7799C22.7113 11.2845 23.4592 11.3061 23.4592 11.3061C23.4592 11.3061 22.0971 11.8445 21.3776 10.7449C21.2318 10.5221 20.8715 9.86247 20.826 9.53536C20.7336 8.87183 20.8394 8.11433 21.111 7.75225C22.1773 6.3307 25.7024 4.72844 29.0855 4.9965C31.2285 5.1663 32.1385 6.37796 33.0559 8.10763C33.6073 7.45997 34.8396 7.54649 34.8396 7.54649C34.8396 7.54649 34.5697 6.07898 33.4274 4.82189C31.1417 2.30641 27.8086 1.21929 24.1767 1.03114C20.6708 0.849507 18.6126 1.47025 15.3798 2.68959C12.4691 3.78741 12.199 5.97768 9.11529 6.59879C7.13547 6.99755 3.38395 6.59879 3.38395 6.59879C3.38395 6.59879 5.07446 7.13116 6.39847 7.39687C7.26162 7.5701 9.59736 7.27841 9.59736 7.27841L11.7299 7.98917C11.7299 7.98917 8.11501 8.93667 6.31626 10.7449C5.1822 11.885 4.63491 12.4079 4.05038 13.7064C3.57639 14.7594 2.85081 16.5495 2.85081 16.5495C2.85081 16.5495 2.36671 19.1784 2.18437 20.9325C2.06944 22.0381 2 23.626 2 23.626C2 23.626 4.28938 20.3091 5.24997 19.8664C6.82757 19.3052 9.28968 18.4293 9.28968 18.4293L13.4627 17.1106C15.0621 16.8737 15.3139 16.8069 17.1125 16.5495C18.683 16.3247 21.111 15.6891 21.111 15.6891C21.111 15.6891 20.575 14.3973 20.7112 13.7064C20.8198 13.1558 21.671 12.1655 22.1263 11.7799Z" fill="#BD2504"/>
<path d="M22.7928 16.9922L21.3776 17.7341L21.111 15.6891M21.111 15.6891C21.111 15.6891 20.575 14.3973 20.7112 13.7064C20.8198 13.1558 21.671 12.1655 22.1263 11.7799C22.7113 11.2845 23.4592 11.3061 23.4592 11.3061M21.111 15.6891C21.111 15.6891 18.683 16.3247 17.1125 16.5495C15.3139 16.8069 15.0621 16.8737 13.4627 17.1106M23.4592 11.3061C23.4592 11.3061 22.0971 11.8445 21.3776 10.7449M23.4592 11.3061L21.3776 10.7449M21.3776 10.7449L20.826 9.53536M21.3776 10.7449C21.2318 10.5221 20.8715 9.86247 20.826 9.53536M21.111 7.75225C22.1773 6.3307 25.7024 4.72844 29.0855 4.9965C31.2285 5.1663 32.1385 6.37796 33.0559 8.10763C33.6073 7.45997 34.8396 7.54649 34.8396 7.54649C34.8396 7.54649 34.5697 6.07898 33.4274 4.82189C31.1417 2.30641 27.8086 1.21929 24.1767 1.03114C20.6708 0.849507 18.6126 1.47025 15.3798 2.68959C12.4691 3.78741 12.199 5.97768 9.11529 6.59879C7.13547 6.99755 3.38395 6.59879 3.38395 6.59879C3.38395 6.59879 5.07446 7.13116 6.39847 7.39687C7.26162 7.5701 9.59736 7.27841 9.59736 7.27841L11.7299 7.98917C11.7299 7.98917 8.11501 8.93667 6.31626 10.7449C5.1822 11.885 4.63491 12.4079 4.05038 13.7064C3.57639 14.7594 2.85081 16.5495 2.85081 16.5495C2.85081 16.5495 2.36671 19.1784 2.18437 20.9325C2.06944 22.0381 2 23.626 2 23.626C2 23.626 4.28938 20.3091 5.24997 19.8664M21.111 7.75225L20.7112 7.54649L20.826 9.53536M21.111 7.75225C20.8394 8.11433 20.7336 8.87183 20.826 9.53536M5.24997 19.8664C8.06076 18.5711 10.6519 18.406 13.4627 17.1106M5.24997 19.8664C6.82757 19.3052 9.28968 18.4293 9.28968 18.4293M5.24997 19.8664L9.28968 18.4293M13.4627 17.1106L9.28968 18.4293M13.4627 17.1106C12.0573 17.7583 10.6068 18.0346 9.28968 18.4293" stroke="#000D1C" stroke-width="2"/>
<path d="M25.7155 23.796C25.3769 23.6045 25.0147 23.4581 24.6382 23.3605L18.8077 21.8491C18.8077 21.8491 16.2186 23.1965 14.9784 27.2992C14.5827 28.6082 14.6351 29.9997 14.8451 31.351C15.2043 33.6633 16.0711 35.9431 17.8347 37.4812C17.9829 37.6105 18.1303 37.7318 18.2745 37.8413C21.6038 40.3688 24.5851 40.4962 28.9375 40.9212C34.0524 41.4208 41.9996 39.3813 41.9996 39.3813C41.9996 39.3813 37.3383 37.452 34.8531 35.5905C31.3258 32.9486 28.3033 27.5381 27.16 25.3193C26.8327 24.6842 26.3374 24.1477 25.7155 23.796Z" fill="#42F389" stroke="#000D1C" stroke-width="2"/>
<path d="M5.25014 19.954C5.09234 20.1717 4.94752 20.3778 4.81432 20.5752C2.06461 24.6502 3.44037 30.1485 6.71629 33.8138C9.22181 36.6171 16.795 39.2319 16.795 39.2319C16.795 39.2319 14.7859 36.6789 14.515 34.9673C14.198 32.9643 14.0226 30.9488 14.515 29.3996C15.38 23.7135 17.1232 24.8511 18.7944 21.9366C18.7944 21.9366 15.6446 21.3852 14.7957 20.3966C13.9469 19.4081 13.4629 17.1982 13.4629 17.1982C12.0575 17.8459 10.607 18.1221 9.28985 18.5168L5.25014 19.954Z" fill="#42F389"/>
<path d="M2 23.7135C2 23.7135 4.28938 20.3966 5.24997 19.954M5.24997 19.954C5.09217 20.1717 4.94735 20.3778 4.81415 20.5752C2.06444 24.6502 3.4402 30.1485 6.71612 33.8138C9.22164 36.6171 16.7948 39.2319 16.7948 39.2319C16.7948 39.2319 14.7857 36.6789 14.5148 34.9673C14.1978 32.9643 14.0224 30.9488 14.5148 29.3996C15.3798 23.7135 17.123 24.8511 18.7942 21.9366C18.7942 21.9366 15.6444 21.3852 14.7955 20.3966C13.9467 19.4081 13.4627 17.1982 13.4627 17.1982M5.24997 19.954C8.06076 18.6586 10.6519 18.4935 13.4627 17.1982M5.24997 19.954C6.82757 19.3927 9.28968 18.5168 9.28968 18.5168M5.24997 19.954L9.28968 18.5168M13.4627 17.1982L9.28968 18.5168M13.4627 17.1982C12.0573 17.8459 10.6068 18.1221 9.28968 18.5168" stroke="#000D1C" stroke-width="2"/>
<path d="M7.19816 33.3027C6.63005 32.5703 5.97627 31.69 5.3521 30.7539C3.25467 27.6083 3.31945 23.8648 5.33214 20.6643C6.20757 20.1994 7.26003 19.8772 8.34884 19.5843C9.12946 19.3207 9.73067 19.1243 9.73067 19.1243C9.8352 19.0882 9.94143 19.0545 10.0491 19.0224L13.0629 18.0581C13.0629 18.0581 13.3305 19.6529 13.9959 20.5458C13.9959 20.5458 10.056 23.8009 9.46403 26.5873C8.59849 30.6619 11.1049 34.6555 14.2879 37.3424C14.8997 37.8588 15.3287 38.1964 15.3287 38.1964C15.3287 38.1964 9.16202 35.8348 7.19816 33.3027Z" fill="#017C75"/>
<g opacity="0.5">
<path d="M7.19816 33.5399C6.63005 32.8075 5.97627 31.9272 5.3521 30.9911C3.25467 27.8455 3.31945 24.102 5.33214 20.9015C6.20757 20.4366 7.26003 20.1144 8.34884 19.8215C9.12946 19.5579 9.73067 19.3615 9.73067 19.3615C9.8352 19.3254 9.94143 19.2917 10.0491 19.2596L13.0629 18.2954C13.0629 18.2954 13.3305 19.8902 13.9959 20.783C13.9959 20.783 10.056 24.0382 9.46403 26.8245C8.59849 30.8991 11.1049 34.8927 14.2879 37.5796C14.8997 38.0961 15.3287 38.4337 15.3287 38.4337C15.3287 38.4337 9.16202 36.072 7.19816 33.5399Z" fill="#017C75"/>
</g>
<path d="M16.5277 25.5213C17.4607 24.5736 19.2467 22.6782 19.2467 22.6782C19.2467 22.6782 20.9717 25.3099 21.6573 26.6283C22.5727 28.3886 20.3107 29.6068 20.7191 31.5048C21.2276 33.8677 22.7297 34.9722 24.8741 36.4974C27.0101 38.0166 28.6147 38.513 31.3076 39.0517C34.3166 39.6538 38.6533 39.3812 38.6533 39.3812L37.8536 39.6181L36.3874 39.855C36.3874 39.855 34.6066 40.1582 33.4551 40.2558C32.7808 40.3129 31.7224 40.3289 31.7224 40.3289H28.6568L24.5763 39.7484C24.5763 39.7484 23.2606 39.5875 21.5926 38.9073C19.9944 38.2557 19.447 37.949 18.3937 37.012C17.4721 36.192 17.1158 35.5634 16.5641 34.5236C15.9756 33.4142 15.6769 32.7151 15.4918 31.5048C15.3063 30.2911 15.2431 29.4589 15.4918 28.2538C15.6958 27.2657 15.7788 26.282 16.5277 25.5213Z" fill="#017C75"/>
<path opacity="0.5" d="M16.5277 25.7586C17.4607 24.8109 19.2467 22.9155 19.2467 22.9155C19.2467 22.9155 20.9717 25.5471 21.6573 26.8655C22.5727 28.6258 20.3107 29.844 20.7191 31.742C21.2276 34.1049 22.7297 35.2094 24.8741 36.7346C27.0101 38.2539 28.6147 38.7502 31.3076 39.289C34.3166 39.891 38.6533 39.6184 38.6533 39.6184L37.8536 39.8553L36.3874 40.0923C36.3874 40.0923 34.6066 40.3955 33.4551 40.493C32.7808 40.5502 31.7224 40.5661 31.7224 40.5661H28.6568L24.5763 39.9856C24.5763 39.9856 23.2606 39.8247 21.5926 39.1446C19.9944 38.4929 19.447 38.1863 18.3937 37.2492C17.4721 36.4293 17.1158 35.8006 16.5641 34.7608C15.9756 33.6515 15.6769 32.9523 15.4918 31.742C15.3063 30.5284 15.2431 29.6962 15.4918 28.491C15.6958 27.503 15.7788 26.5193 16.5277 25.7586Z" fill="#017C75"/>
<path d="M26.5243 9.7657C27.2604 9.7657 27.8571 9.23534 27.8571 8.58109C27.8571 7.92685 27.2604 7.39648 26.5243 7.39648C25.7882 7.39648 25.1914 7.92685 25.1914 8.58109C25.1914 9.23534 25.7882 9.7657 26.5243 9.7657Z" fill="black"/>
<path d="M25.3246 8.34427C25.6927 8.34427 25.9911 8.07909 25.9911 7.75197C25.9911 7.42485 25.6927 7.15967 25.3246 7.15967C24.9566 7.15967 24.6582 7.42485 24.6582 7.75197C24.6582 8.07909 24.9566 8.34427 25.3246 8.34427Z" fill="white"/>
<g opacity="0.5" filter="url(#filter0_f_542_7858)">
<path d="M26.5243 10.0025C27.2604 10.0025 27.8571 9.47215 27.8571 8.81791C27.8571 8.16367 27.2604 7.6333 26.5243 7.6333C25.7882 7.6333 25.1914 8.16367 25.1914 8.81791C25.1914 9.47215 25.7882 10.0025 26.5243 10.0025Z" fill="black"/>
<path d="M25.3246 8.58109C25.6927 8.58109 25.9911 8.31591 25.9911 7.98879C25.9911 7.66167 25.6927 7.39648 25.3246 7.39648C24.9566 7.39648 24.6582 7.66167 24.6582 7.98879C24.6582 8.31591 24.9566 8.58109 25.3246 8.58109Z" fill="white"/>
</g>
<path d="M9.99632 9.13286C11.2968 8.59971 13.4618 8.06671 13.4618 8.06671L10.2629 6.7637L11.1959 6.64521C13.3285 6.2125 15.5944 3.90263 18.7933 3.36952C23.1853 2.63755 25.2163 2.87536 26.2574 3.01414C26.5396 3.05177 26.8256 3.09512 27.1191 3.14694C28.8816 3.45816 30.7857 3.89847 31.9887 5.22366C32.2244 5.48329 32.2553 5.69752 32.2553 5.69752C32.2553 5.69752 31.4345 4.99573 30.5225 4.63137C29.2845 4.13675 27.5902 4.20826 27.0571 4.27597C26.1241 4.39446 25.2242 4.5891 24.1248 4.98674C22.7191 5.49511 20.9259 6.92332 20.9259 6.92332L20.3927 6.64521L19.8596 6.40829C19.8596 6.40829 19.9548 7.8429 20.1262 8.89596C20.2256 9.50681 19.9722 9.99246 20.2594 10.5543C20.4924 11.0099 21.0592 11.6205 21.0592 11.6205C21.0592 11.6205 20.0839 12.6131 19.8596 13.3974C19.6672 14.0699 19.9929 15.2928 19.9929 15.2928C19.9929 15.2928 16.0196 16.0877 13.5951 16.7143C10.7501 17.4496 10.3962 16.9512 6.39758 18.7281C5.13969 19.2871 2.79883 21.0973 2.79883 21.0973L3.46527 16.5958C3.46527 16.5958 4.20497 14.0699 5.198 12.6866C5.854 11.7728 6.26485 11.253 7.1973 10.5543C8.15983 9.83316 8.85312 9.60153 9.99632 9.13286Z" fill="#0099BB"/>
<path d="M5.06618 16.0444C6.21477 14.3221 8.79821 12.1352 8.79821 12.1352C8.79821 12.1352 8.97786 13.5814 9.59793 13.9121C10.2644 14.2675 11.0101 14.4733 11.9971 14.6229C13.2665 14.8152 14.0976 14.5093 15.196 13.9121L15.2373 13.8896C16.1905 13.3716 16.9051 12.9831 17.1953 12.0167C17.425 11.2516 17.6102 9.97609 17.8617 9.52901C18.1133 9.08192 18.1473 8.91987 18.928 8.22594C19.7088 7.53201 19.861 6.33057 19.861 6.33057C19.861 6.33057 20.0908 7.77051 20.1276 8.69978C20.1613 9.54831 20.3732 10.3848 20.8324 11.0991L21.1939 11.6613C21.1939 11.6613 20.6451 12.2455 20.3942 12.609C20.0756 13.0706 19.9943 13.9121 19.9943 13.9121L20.1276 15.3336L18.7947 15.5705L16.9287 16.0444C16.9287 16.0444 14.4214 16.6524 12.5303 17.1105C10.6081 17.5762 9.46464 17.5844 7.59863 18.2951C5.71322 19.0133 2.93359 21.1382 2.93359 21.1382C2.93359 21.1382 3.84852 17.8703 5.06618 16.0444Z" fill="#0A4672"/>
<path d="M24.1145 14.2106C23.5807 13.6496 24.4504 11.9746 24.4504 11.9746C24.4504 11.9746 22.7796 12.4235 22.5 12.6903C22.3401 12.8429 21.75 13.8831 21.75 13.8831L22.25 15.076L23.0001 15.9507L26.4501 16.4809V15.9507C26.4501 14.9718 26.358 14.4449 26.4501 14.1217C26.524 13.8621 26.7501 13.1674 26.7501 13.1674C26.7501 13.1674 24.6482 14.7717 24.1145 14.2106Z" fill="#818181" fill-opacity="0.91"/>
<path d="M25.1927 24.3367C24.2033 23.8119 22.6602 23.626 22.6602 23.626C24.5038 25.1084 25.9877 26.9833 27.0891 29.077C27.5669 29.9853 28.0802 30.9305 28.5248 31.6813C29.8577 33.932 29.9276 34.722 32.1236 36.1828C33.3724 37.0135 34.3908 37.7201 35.8556 38.1966C37.1718 38.6248 39.3211 39.0259 39.3211 39.0259C39.3211 39.0259 37.1885 37.8412 34.7893 36.1828C33.4922 35.2861 33.723 35.472 33.0566 34.9982C32.8542 34.753 32.2113 34.2267 31.7237 33.5767C30.1611 31.4935 27.6116 25.6199 25.1927 24.3367Z" fill="white"/>
<path opacity="0.5" d="M25.1927 24.5736C24.2033 24.0487 22.6602 23.8628 22.6602 23.8628C24.5038 25.3453 25.9877 27.2202 27.0891 29.3138C27.5669 30.2221 28.0802 31.1673 28.5248 31.9181C29.8577 34.1689 29.9276 34.9588 32.1236 36.4196C33.3724 37.2503 34.3909 37.957 35.8556 38.4335C37.1718 38.8616 39.3211 39.2627 39.3211 39.2627C39.3211 39.2627 37.1885 38.0781 34.7893 36.4196C33.4922 35.523 33.723 35.7089 33.0566 35.235C32.8542 34.9898 32.2113 34.4636 31.7237 33.8135C30.1611 31.7303 27.6116 25.8567 25.1927 24.5736Z" fill="white"/>
<path d="M37.4534 12.853C37.1739 9.64731 35.1875 8.34424 35.1875 8.34424C35.1875 8.34424 36.697 10.8697 36.9203 12.6089C37.1093 14.0814 36.3871 16.5181 36.3871 16.5181C36.3871 16.5181 37.6181 14.7412 37.4534 12.853Z" fill="white"/>
<path d="M52.2 27.22C52.2 26.86 52.1 26.56 51.9 26.32C51.7 26.08 51.42 25.88 51.06 25.72C50.72 25.54 50.33 25.39 49.89 25.27C49.47 25.15 49.01 25.03 48.51 24.91C47.89 24.75 47.27 24.57 46.65 24.37C46.05 24.15 45.49 23.87 44.97 23.53C44.47 23.17 44.06 22.72 43.74 22.18C43.44 21.62 43.29 20.92 43.29 20.08C43.29 19.08 43.55 18.23 44.07 17.53C44.59 16.81 45.33 16.26 46.29 15.88C47.25 15.5 48.38 15.31 49.68 15.31C50.72 15.31 51.62 15.39 52.38 15.55C53.14 15.71 53.76 15.9 54.24 16.12C54.74 16.34 55.09 16.53 55.29 16.69V19.84H51.93V17.14C52.21 17.14 52.42 17.18 52.56 17.26C52.72 17.34 52.82 17.45 52.86 17.59C52.92 17.73 52.94 17.89 52.92 18.07C52.9 18.23 52.86 18.39 52.8 18.55C52.58 18.29 52.31 18.07 51.99 17.89C51.69 17.69 51.35 17.55 50.97 17.47C50.59 17.37 50.16 17.32 49.68 17.32C48.84 17.32 48.2 17.49 47.76 17.83C47.34 18.17 47.13 18.62 47.13 19.18C47.13 19.56 47.23 19.88 47.43 20.14C47.65 20.38 47.94 20.59 48.3 20.77C48.66 20.93 49.07 21.08 49.53 21.22C49.99 21.34 50.48 21.47 51 21.61C51.62 21.77 52.24 21.96 52.86 22.18C53.48 22.38 54.05 22.66 54.57 23.02C55.09 23.36 55.5 23.8 55.8 24.34C56.12 24.86 56.28 25.51 56.28 26.29C56.28 27.33 56.01 28.22 55.47 28.96C54.93 29.7 54.14 30.28 53.1 30.7C52.06 31.1 50.8 31.3 49.32 31.3C48.26 31.3 47.31 31.22 46.47 31.06C45.63 30.9 44.9 30.69 44.28 30.43C43.68 30.17 43.18 29.92 42.78 29.68V26.29H46.2V29.86C45.88 29.68 45.63 29.5 45.45 29.32C45.27 29.12 45.15 28.93 45.09 28.75C45.03 28.55 45.02 28.37 45.06 28.21C45.12 28.03 45.22 27.9 45.36 27.82C45.66 28.16 46 28.44 46.38 28.66C46.78 28.88 47.22 29.04 47.7 29.14C48.2 29.24 48.73 29.29 49.29 29.29C49.91 29.29 50.43 29.21 50.85 29.05C51.27 28.89 51.6 28.66 51.84 28.36C52.08 28.04 52.2 27.66 52.2 27.22ZM59.85 17.65V15.82H59.97C60.47 15.82 60.89 15.78 61.23 15.7C61.59 15.62 61.87 15.48 62.07 15.28C62.27 15.08 62.37 14.8 62.37 14.44L65.01 15.67H70.77V17.65H59.85ZM66.69 25.78C66.69 26.58 66.78 27.23 66.96 27.73C67.14 28.21 67.41 28.55 67.77 28.75C68.13 28.95 68.55 29.05 69.03 29.05C69.43 29.05 69.8 29.01 70.14 28.93C70.5 28.85 70.78 28.78 70.98 28.72V30.79C70.82 30.87 70.59 30.95 70.29 31.03C69.99 31.11 69.65 31.17 69.27 31.21C68.89 31.27 68.47 31.3 68.01 31.3C66.93 31.3 65.94 31.14 65.04 30.82C64.16 30.48 63.45 29.91 62.91 29.11C62.39 28.31 62.13 27.22 62.13 25.84V16.18L62.37 15.97L62.4 11.5H66.69V25.78ZM81.3431 15.67V26.11C81.3431 26.71 81.4031 27.21 81.5231 27.61C81.6631 27.99 81.8731 28.27 82.1531 28.45C82.4331 28.63 82.8131 28.72 83.2931 28.72C83.8131 28.72 84.3031 28.6 84.7631 28.36C85.2231 28.1 85.6631 27.72 86.0831 27.22C86.5031 26.7 86.9131 26.04 87.3131 25.24L87.3731 27.76C86.9131 28.54 86.4031 29.19 85.8431 29.71C85.3031 30.23 84.6931 30.63 84.0131 30.91C83.3331 31.17 82.5831 31.3 81.7631 31.3C80.7631 31.3 79.8931 31.12 79.1531 30.76C78.4131 30.38 77.8331 29.81 77.4131 29.05C77.0131 28.29 76.8131 27.35 76.8131 26.23V18.58C76.8131 18.22 76.6831 17.97 76.4231 17.83C76.1631 17.67 75.7431 17.54 75.1631 17.44L74.8631 17.38V15.67H81.3431ZM91.2731 15.67V28.3C91.2731 28.54 91.3431 28.73 91.4831 28.87C91.6431 28.99 91.8531 29.08 92.1131 29.14C92.3931 29.2 92.7131 29.24 93.0731 29.26L93.2231 29.29V31H87.0731V27.67L86.7431 27.61V18.58C86.7431 18.22 86.5831 17.97 86.2631 17.83C85.9431 17.67 85.4931 17.55 84.9131 17.47L84.3731 17.38V15.67H91.2731ZM113.758 28.3C113.758 28.66 113.918 28.9 114.238 29.02C114.578 29.14 115.028 29.22 115.588 29.26L115.678 29.29V31H109.528V27.52L109.228 27.64V11.83C109.228 11.57 109.168 11.38 109.048 11.26C108.928 11.12 108.738 11.01 108.478 10.93C108.218 10.85 107.888 10.77 107.488 10.69L107.218 10.63V8.92H113.758V28.3ZM104.668 15.37C105.548 15.37 106.318 15.5 106.978 15.76C107.658 16.02 108.258 16.42 108.778 16.96C109.318 17.5 109.798 18.19 110.218 19.03L110.128 21.82C109.708 20.88 109.278 20.11 108.838 19.51C108.398 18.89 107.918 18.44 107.398 18.16C106.898 17.86 106.338 17.71 105.718 17.71C105.138 17.71 104.628 17.85 104.188 18.13C103.748 18.39 103.378 18.77 103.078 19.27C102.798 19.77 102.588 20.38 102.448 21.1C102.308 21.8 102.238 22.6 102.238 23.5C102.238 24.34 102.308 25.1 102.448 25.78C102.588 26.46 102.798 27.04 103.078 27.52C103.358 27.98 103.698 28.34 104.098 28.6C104.518 28.84 104.998 28.96 105.538 28.96C106.198 28.96 106.778 28.8 107.278 28.48C107.778 28.14 108.258 27.64 108.718 26.98C109.178 26.32 109.648 25.49 110.128 24.49L110.188 27.22C109.688 28.12 109.168 28.88 108.628 29.5C108.088 30.1 107.488 30.55 106.828 30.85C106.168 31.15 105.378 31.3 104.458 31.3C103.078 31.3 101.868 30.98 100.828 30.34C99.7877 29.68 98.9777 28.77 98.3977 27.61C97.8177 26.43 97.5277 25.06 97.5277 23.5C97.5277 21.88 97.8277 20.47 98.4277 19.27C99.0477 18.05 99.8877 17.1 100.948 16.42C102.028 15.72 103.268 15.37 104.668 15.37ZM123.874 13.15C123.094 13.15 122.464 12.95 121.984 12.55C121.524 12.15 121.294 11.59 121.294 10.87C121.294 10.17 121.524 9.63 121.984 9.25C122.464 8.85 123.094 8.65 123.874 8.65C124.654 8.65 125.274 8.85 125.734 9.25C126.214 9.63 126.454 10.17 126.454 10.87C126.454 11.59 126.214 12.15 125.734 12.55C125.274 12.95 124.654 13.15 123.874 13.15ZM126.244 15.67V28.39C126.244 28.77 126.424 29.03 126.784 29.17C127.144 29.29 127.584 29.35 128.104 29.35H128.134V31H119.794V29.35H119.824C120.364 29.35 120.804 29.29 121.144 29.17C121.504 29.03 121.684 28.77 121.684 28.39V18.58C121.684 18.22 121.554 17.97 121.294 17.83C121.034 17.69 120.614 17.56 120.034 17.44L119.764 17.38V15.67H126.244ZM149.378 23.32C149.378 24.88 149.028 26.27 148.328 27.49C147.628 28.69 146.638 29.63 145.358 30.31C144.098 30.97 142.618 31.3 140.918 31.3C139.238 31.3 137.758 30.97 136.478 30.31C135.218 29.63 134.238 28.69 133.538 27.49C132.838 26.27 132.488 24.88 132.488 23.32C132.488 22.16 132.688 21.09 133.088 20.11C133.488 19.13 134.058 18.29 134.798 17.59C135.558 16.87 136.448 16.32 137.468 15.94C138.508 15.56 139.658 15.37 140.918 15.37C142.198 15.37 143.348 15.56 144.368 15.94C145.408 16.32 146.298 16.87 147.038 17.59C147.798 18.29 148.378 19.13 148.778 20.11C149.178 21.09 149.378 22.16 149.378 23.32ZM137.198 23.32C137.198 24.58 137.338 25.66 137.618 26.56C137.918 27.44 138.348 28.11 138.908 28.57C139.468 29.03 140.138 29.26 140.918 29.26C141.718 29.26 142.388 29.03 142.928 28.57C143.488 28.11 143.918 27.44 144.218 26.56C144.518 25.66 144.668 24.58 144.668 23.32C144.668 22.06 144.518 21 144.218 20.14C143.918 19.26 143.488 18.59 142.928 18.13C142.388 17.67 141.718 17.44 140.918 17.44C140.138 17.44 139.468 17.67 138.908 18.13C138.348 18.59 137.918 19.26 137.618 20.14C137.338 21 137.198 22.06 137.198 23.32ZM184.081 23.14V27.88C183.781 28.26 183.351 28.66 182.791 29.08C182.231 29.48 181.571 29.85 180.811 30.19C180.051 30.51 179.221 30.78 178.321 31C177.421 31.2 176.471 31.3 175.471 31.3C173.831 31.3 172.341 31.04 171.001 30.52C169.661 30 168.501 29.26 167.521 28.3C166.561 27.32 165.821 26.16 165.301 24.82C164.781 23.48 164.521 21.99 164.521 20.35C164.521 18.75 164.791 17.28 165.331 15.94C165.871 14.6 166.621 13.44 167.581 12.46C168.561 11.48 169.691 10.73 170.971 10.21C172.271 9.67 173.671 9.4 175.171 9.4C176.571 9.4 177.761 9.63 178.741 10.09C179.721 10.55 180.511 11.19 181.111 12.01C181.731 12.81 182.201 13.74 182.521 14.8L181.111 14.56L181.651 9.7H183.811V16.3H181.351C181.051 15.36 180.651 14.55 180.151 13.87C179.651 13.17 179.031 12.63 178.291 12.25C177.551 11.85 176.671 11.65 175.651 11.65C174.731 11.65 173.891 11.86 173.131 12.28C172.391 12.68 171.751 13.26 171.211 14.02C170.691 14.78 170.281 15.7 169.981 16.78C169.701 17.84 169.561 19.03 169.561 20.35C169.561 21.75 169.701 23 169.981 24.1C170.261 25.18 170.671 26.09 171.211 26.83C171.751 27.55 172.391 28.11 173.131 28.51C173.891 28.89 174.751 29.08 175.711 29.08C176.451 29.08 177.081 28.99 177.601 28.81C178.121 28.63 178.551 28.42 178.891 28.18C179.251 27.94 179.511 27.75 179.671 27.61V23.14C179.671 22.7 179.481 22.41 179.101 22.27C178.721 22.13 178.231 22.06 177.631 22.06H177.331V20.29H185.971V22.06H185.821C185.341 22.06 184.931 22.13 184.591 22.27C184.251 22.41 184.081 22.7 184.081 23.14ZM196.801 15.67V26.11C196.801 26.71 196.861 27.21 196.981 27.61C197.121 27.99 197.331 28.27 197.611 28.45C197.891 28.63 198.271 28.72 198.751 28.72C199.271 28.72 199.761 28.6 200.221 28.36C200.681 28.1 201.121 27.72 201.541 27.22C201.961 26.7 202.371 26.04 202.771 25.24L202.831 27.76C202.371 28.54 201.861 29.19 201.301 29.71C200.761 30.23 200.151 30.63 199.471 30.91C198.791 31.17 198.041 31.3 197.221 31.3C196.221 31.3 195.351 31.12 194.611 30.76C193.871 30.38 193.291 29.81 192.871 29.05C192.471 28.29 192.271 27.35 192.271 26.23V18.58C192.271 18.22 192.141 17.97 191.881 17.83C191.621 17.67 191.201 17.54 190.621 17.44L190.321 17.38V15.67H196.801ZM206.731 15.67V28.3C206.731 28.54 206.801 28.73 206.941 28.87C207.101 28.99 207.311 29.08 207.571 29.14C207.851 29.2 208.171 29.24 208.531 29.26L208.681 29.29V31H202.531V27.67L202.201 27.61V18.58C202.201 18.22 202.041 17.97 201.721 17.83C201.401 17.67 200.951 17.55 200.371 17.47L199.831 17.38V15.67H206.731ZM223.095 21.76L223.065 23.44C222.285 23.54 221.585 23.66 220.965 23.8C220.345 23.94 219.805 24.12 219.345 24.34C218.905 24.54 218.535 24.78 218.235 25.06C217.955 25.32 217.735 25.62 217.575 25.96C217.435 26.3 217.365 26.67 217.365 27.07C217.365 27.53 217.455 27.93 217.635 28.27C217.815 28.59 218.065 28.84 218.385 29.02C218.705 29.18 219.075 29.26 219.495 29.26C220.035 29.26 220.525 29.12 220.965 28.84C221.405 28.56 221.795 28.16 222.135 27.64C222.475 27.12 222.765 26.52 223.005 25.84L223.065 27.88C222.765 28.6 222.375 29.22 221.895 29.74C221.435 30.24 220.875 30.63 220.215 30.91C219.555 31.17 218.805 31.3 217.965 31.3C216.985 31.3 216.125 31.15 215.385 30.85C214.645 30.53 214.065 30.07 213.645 29.47C213.245 28.85 213.045 28.11 213.045 27.25C213.045 26.41 213.255 25.69 213.675 25.09C214.115 24.49 214.755 23.98 215.595 23.56C216.435 23.12 217.475 22.76 218.715 22.48C219.975 22.18 221.435 21.94 223.095 21.76ZM222.705 31V27.97H222.375V20.08C222.375 19.44 222.275 18.92 222.075 18.52C221.895 18.12 221.625 17.84 221.265 17.68C220.905 17.5 220.455 17.41 219.915 17.41C219.095 17.41 218.425 17.59 217.905 17.95C217.385 18.29 216.975 18.7 216.675 19.18C216.555 18.96 216.495 18.76 216.495 18.58C216.495 18.38 216.545 18.2 216.645 18.04C216.765 17.86 216.915 17.71 217.095 17.59C217.295 17.47 217.515 17.38 217.755 17.32V20.5H214.065V17.29C214.365 17.07 214.795 16.81 215.355 16.51C215.915 16.21 216.615 15.95 217.455 15.73C218.295 15.49 219.265 15.37 220.365 15.37C221.265 15.37 222.105 15.47 222.885 15.67C223.665 15.85 224.345 16.14 224.925 16.54C225.525 16.94 225.985 17.47 226.305 18.13C226.645 18.77 226.815 19.56 226.815 20.5V28.3C226.815 28.54 226.885 28.73 227.025 28.87C227.185 28.99 227.395 29.08 227.655 29.14C227.935 29.2 228.255 29.24 228.615 29.26L228.705 29.29V31H222.705ZM241.737 29.17C242.517 29.17 243.187 29.01 243.747 28.69C244.307 28.35 244.787 27.94 245.187 27.46C245.607 26.96 245.957 26.48 246.237 26.02L247.857 27.28C247.437 28.04 246.917 28.73 246.297 29.35C245.697 29.95 244.977 30.43 244.137 30.79C243.297 31.13 242.287 31.3 241.107 31.3C239.467 31.3 238.017 30.97 236.757 30.31C235.497 29.65 234.507 28.73 233.787 27.55C233.067 26.35 232.707 24.94 232.707 23.32C232.707 21.7 233.067 20.3 233.787 19.12C234.527 17.92 235.537 17 236.817 16.36C238.117 15.7 239.637 15.37 241.377 15.37C242.477 15.37 243.437 15.48 244.257 15.7C245.097 15.92 245.787 16.17 246.327 16.45C246.887 16.73 247.287 16.98 247.527 17.2V21.1H243.867V17.41C244.127 17.45 244.337 17.53 244.497 17.65C244.657 17.77 244.777 17.91 244.857 18.07C244.957 18.23 245.007 18.41 245.007 18.61C245.007 18.79 244.957 18.97 244.857 19.15C244.577 18.65 244.137 18.24 243.537 17.92C242.957 17.6 242.307 17.44 241.587 17.44C240.667 17.44 239.897 17.68 239.277 18.16C238.657 18.64 238.187 19.33 237.867 20.23C237.567 21.11 237.417 22.14 237.417 23.32C237.417 24.22 237.507 25.03 237.687 25.75C237.887 26.47 238.167 27.09 238.527 27.61C238.907 28.11 239.367 28.5 239.907 28.78C240.447 29.04 241.057 29.17 241.737 29.17ZM262.656 21.76L262.626 23.44C261.846 23.54 261.146 23.66 260.526 23.8C259.906 23.94 259.366 24.12 258.906 24.34C258.466 24.54 258.096 24.78 257.796 25.06C257.516 25.32 257.296 25.62 257.136 25.96C256.996 26.3 256.926 26.67 256.926 27.07C256.926 27.53 257.016 27.93 257.196 28.27C257.376 28.59 257.626 28.84 257.946 29.02C258.266 29.18 258.636 29.26 259.056 29.26C259.596 29.26 260.086 29.12 260.526 28.84C260.966 28.56 261.356 28.16 261.696 27.64C262.036 27.12 262.326 26.52 262.566 25.84L262.626 27.88C262.326 28.6 261.936 29.22 261.456 29.74C260.996 30.24 260.436 30.63 259.776 30.91C259.116 31.17 258.366 31.3 257.526 31.3C256.546 31.3 255.686 31.15 254.946 30.85C254.206 30.53 253.626 30.07 253.206 29.47C252.806 28.85 252.606 28.11 252.606 27.25C252.606 26.41 252.816 25.69 253.236 25.09C253.676 24.49 254.316 23.98 255.156 23.56C255.996 23.12 257.036 22.76 258.276 22.48C259.536 22.18 260.996 21.94 262.656 21.76ZM262.266 31V27.97H261.936V20.08C261.936 19.44 261.836 18.92 261.636 18.52C261.456 18.12 261.186 17.84 260.826 17.68C260.466 17.5 260.016 17.41 259.476 17.41C258.656 17.41 257.986 17.59 257.466 17.95C256.946 18.29 256.536 18.7 256.236 19.18C256.116 18.96 256.056 18.76 256.056 18.58C256.056 18.38 256.106 18.2 256.206 18.04C256.326 17.86 256.476 17.71 256.656 17.59C256.856 17.47 257.076 17.38 257.316 17.32V20.5H253.626V17.29C253.926 17.07 254.356 16.81 254.916 16.51C255.476 16.21 256.176 15.95 257.016 15.73C257.856 15.49 258.826 15.37 259.926 15.37C260.826 15.37 261.666 15.47 262.446 15.67C263.226 15.85 263.906 16.14 264.486 16.54C265.086 16.94 265.546 17.47 265.866 18.13C266.206 18.77 266.376 19.56 266.376 20.5V28.3C266.376 28.54 266.446 28.73 266.586 28.87C266.746 28.99 266.956 29.08 267.216 29.14C267.496 29.2 267.816 29.24 268.176 29.26L268.266 29.29V31H262.266ZM272.204 31V29.35H272.264C272.804 29.35 273.244 29.29 273.584 29.17C273.944 29.03 274.124 28.77 274.124 28.39V18.58C274.124 18.32 274.064 18.13 273.944 18.01C273.824 17.89 273.644 17.79 273.404 17.71C273.164 17.61 272.854 17.52 272.474 17.44L272.204 17.38V15.67H278.324V18.97L278.654 19.03V29.05C278.654 29.11 278.734 29.17 278.894 29.23C279.054 29.27 279.244 29.3 279.464 29.32C279.704 29.34 279.914 29.35 280.094 29.35H280.154V31H272.204ZM289.454 31H281.864V29.35H281.924C282.124 29.35 282.334 29.34 282.554 29.32C282.794 29.3 282.994 29.27 283.154 29.23C283.314 29.17 283.394 29.11 283.394 29.05V20.53C283.394 19.93 283.344 19.44 283.244 19.06C283.144 18.68 282.974 18.4 282.734 18.22C282.514 18.04 282.194 17.95 281.774 17.95C281.314 17.95 280.874 18.07 280.454 18.31C280.034 18.55 279.634 18.92 279.254 19.42C278.874 19.92 278.484 20.57 278.084 21.37L278.054 18.91C278.474 18.13 278.944 17.48 279.464 16.96C279.984 16.44 280.564 16.05 281.204 15.79C281.844 15.51 282.554 15.37 283.334 15.37C284.254 15.37 285.064 15.56 285.764 15.94C286.464 16.3 287.004 16.86 287.384 17.62C287.764 18.36 287.954 19.3 287.954 20.44V29.05C287.954 29.11 288.034 29.17 288.194 29.23C288.354 29.27 288.544 29.3 288.764 29.32C289.004 29.34 289.224 29.35 289.424 29.35H289.454V31ZM299.174 31H291.164V29.35H291.254C291.454 29.35 291.664 29.34 291.884 29.32C292.104 29.28 292.294 29.24 292.454 29.2C292.614 29.16 292.694 29.11 292.694 29.05V20.53C292.694 19.93 292.644 19.44 292.544 19.06C292.444 18.68 292.274 18.4 292.034 18.22C291.814 18.04 291.494 17.95 291.074 17.95C290.614 17.95 290.164 18.08 289.724 18.34C289.304 18.58 288.904 18.95 288.524 19.45C288.144 19.95 287.754 20.58 287.354 21.34L287.324 18.88C287.764 18.12 288.244 17.48 288.764 16.96C289.284 16.44 289.864 16.05 290.504 15.79C291.144 15.51 291.854 15.37 292.634 15.37C293.554 15.37 294.354 15.56 295.034 15.94C295.714 16.3 296.244 16.86 296.624 17.62C297.024 18.36 297.224 19.3 297.224 20.44V28.39C297.224 28.77 297.404 29.03 297.764 29.17C298.124 29.29 298.564 29.35 299.084 29.35H299.174V31ZM313.612 21.76L313.582 23.44C312.802 23.54 312.102 23.66 311.482 23.8C310.862 23.94 310.322 24.12 309.862 24.34C309.422 24.54 309.052 24.78 308.752 25.06C308.472 25.32 308.252 25.62 308.092 25.96C307.952 26.3 307.882 26.67 307.882 27.07C307.882 27.53 307.972 27.93 308.152 28.27C308.332 28.59 308.582 28.84 308.902 29.02C309.222 29.18 309.592 29.26 310.012 29.26C310.552 29.26 311.042 29.12 311.482 28.84C311.922 28.56 312.312 28.16 312.652 27.64C312.992 27.12 313.282 26.52 313.522 25.84L313.582 27.88C313.282 28.6 312.892 29.22 312.412 29.74C311.952 30.24 311.392 30.63 310.732 30.91C310.072 31.17 309.322 31.3 308.482 31.3C307.502 31.3 306.642 31.15 305.902 30.85C305.162 30.53 304.582 30.07 304.162 29.47C303.762 28.85 303.562 28.11 303.562 27.25C303.562 26.41 303.772 25.69 304.192 25.09C304.632 24.49 305.272 23.98 306.112 23.56C306.952 23.12 307.992 22.76 309.232 22.48C310.492 22.18 311.952 21.94 313.612 21.76ZM313.222 31V27.97H312.892V20.08C312.892 19.44 312.792 18.92 312.592 18.52C312.412 18.12 312.142 17.84 311.782 17.68C311.422 17.5 310.972 17.41 310.432 17.41C309.612 17.41 308.942 17.59 308.422 17.95C307.902 18.29 307.492 18.7 307.192 19.18C307.072 18.96 307.012 18.76 307.012 18.58C307.012 18.38 307.062 18.2 307.162 18.04C307.282 17.86 307.432 17.71 307.612 17.59C307.812 17.47 308.032 17.38 308.272 17.32V20.5H304.582V17.29C304.882 17.07 305.312 16.81 305.872 16.51C306.432 16.21 307.132 15.95 307.972 15.73C308.812 15.49 309.782 15.37 310.882 15.37C311.782 15.37 312.622 15.47 313.402 15.67C314.182 15.85 314.862 16.14 315.442 16.54C316.042 16.94 316.502 17.47 316.822 18.13C317.162 18.77 317.332 19.56 317.332 20.5V28.3C317.332 28.54 317.402 28.73 317.542 28.87C317.702 28.99 317.912 29.08 318.172 29.14C318.452 29.2 318.772 29.24 319.132 29.26L319.222 29.29V31H313.222ZM332.357 28.3L331.187 30.64L329.747 32.23L323.687 18.37C323.567 18.09 323.427 17.88 323.267 17.74C323.107 17.58 322.907 17.47 322.667 17.41C322.447 17.35 322.167 17.32 321.827 17.32H321.797V15.67H330.257V17.32H330.197C329.857 17.32 329.517 17.33 329.177 17.35C328.837 17.37 328.557 17.4 328.337 17.44C328.137 17.46 328.037 17.51 328.037 17.59L332.357 28.3ZM332.327 30.49C331.767 31.81 331.207 32.94 330.647 33.88C330.087 34.84 329.517 35.62 328.937 36.22C328.357 36.82 327.747 37.26 327.107 37.54C326.487 37.84 325.807 37.99 325.067 37.99C324.527 37.99 324.057 37.93 323.657 37.81C323.277 37.69 322.977 37.55 322.757 37.39V33.97C322.837 33.99 323.007 34.05 323.267 34.15C323.527 34.27 323.847 34.38 324.227 34.48C324.607 34.58 325.007 34.63 325.427 34.63C325.887 34.63 326.327 34.56 326.747 34.42C327.167 34.3 327.577 34.07 327.977 33.73C328.377 33.41 328.767 32.94 329.147 32.32C329.547 31.72 329.937 30.95 330.317 30.01L330.827 28.84L335.417 17.98C335.417 17.84 335.317 17.73 335.117 17.65C334.917 17.55 334.657 17.47 334.337 17.41C334.037 17.35 333.717 17.32 333.377 17.32H333.287V15.67H339.317V17.32H339.287C339.027 17.32 338.777 17.36 338.537 17.44C338.317 17.52 338.107 17.66 337.907 17.86C337.707 18.06 337.537 18.33 337.397 18.67L332.327 30.49ZM352.821 21.76L352.791 23.44C352.011 23.54 351.311 23.66 350.691 23.8C350.071 23.94 349.531 24.12 349.071 24.34C348.631 24.54 348.261 24.78 347.961 25.06C347.681 25.32 347.461 25.62 347.301 25.96C347.161 26.3 347.091 26.67 347.091 27.07C347.091 27.53 347.181 27.93 347.361 28.27C347.541 28.59 347.791 28.84 348.111 29.02C348.431 29.18 348.801 29.26 349.221 29.26C349.761 29.26 350.251 29.12 350.691 28.84C351.131 28.56 351.521 28.16 351.861 27.64C352.201 27.12 352.491 26.52 352.731 25.84L352.791 27.88C352.491 28.6 352.101 29.22 351.621 29.74C351.161 30.24 350.601 30.63 349.941 30.91C349.281 31.17 348.531 31.3 347.691 31.3C346.711 31.3 345.851 31.15 345.111 30.85C344.371 30.53 343.791 30.07 343.371 29.47C342.971 28.85 342.771 28.11 342.771 27.25C342.771 26.41 342.981 25.69 343.401 25.09C343.841 24.49 344.481 23.98 345.321 23.56C346.161 23.12 347.201 22.76 348.441 22.48C349.701 22.18 351.161 21.94 352.821 21.76ZM352.431 31V27.97H352.101V20.08C352.101 19.44 352.001 18.92 351.801 18.52C351.621 18.12 351.351 17.84 350.991 17.68C350.631 17.5 350.181 17.41 349.641 17.41C348.821 17.41 348.151 17.59 347.631 17.95C347.111 18.29 346.701 18.7 346.401 19.18C346.281 18.96 346.221 18.76 346.221 18.58C346.221 18.38 346.271 18.2 346.371 18.04C346.491 17.86 346.641 17.71 346.821 17.59C347.021 17.47 347.241 17.38 347.481 17.32V20.5H343.791V17.29C344.091 17.07 344.521 16.81 345.081 16.51C345.641 16.21 346.341 15.95 347.181 15.73C348.021 15.49 348.991 15.37 350.091 15.37C350.991 15.37 351.831 15.47 352.611 15.67C353.391 15.85 354.071 16.14 354.651 16.54C355.251 16.94 355.711 17.47 356.031 18.13C356.371 18.77 356.541 19.56 356.541 20.5V28.3C356.541 28.54 356.611 28.73 356.751 28.87C356.911 28.99 357.121 29.08 357.381 29.14C357.661 29.2 357.981 29.24 358.341 29.26L358.431 29.29V31H352.431Z" fill="white"/>
<defs>
<filter id="filter0_f_542_7858" x="18.6582" y="1.39648" width="15.1992" height="14.606" filterUnits="userSpaceOnUse" color-interpolation-filters="sRGB">
<feFlood flood-opacity="0" result="BackgroundImageFix"/>
<feBlend mode="normal" in="SourceGraphic" in2="BackgroundImageFix" result="shape"/>
<feGaussianBlur stdDeviation="3" result="effect1_foregroundBlur_542_7858"/>
</filter>
</defs>
</svg>
