<svg width="400" height="400" viewBox="0 0 400 400" fill="none" xmlns="http://www.w3.org/2000/svg">
<path d="M75.2623 117.184C75.2623 117.184 57.0897 124.23 54.4173 141.344C51.7449 158.458 93.0394 208.589 93.0394 208.589L220.387 141.333L180.124 72.082L75.2623 117.184Z" fill="#C7DCF9"/>
<path d="M103.423 133.333C103.423 133.333 90.0232 146.817 85.9129 161.736C81.8027 176.655 81.2736 203.297 81.9577 213.276C101.948 231.406 180.961 216.215 180.961 216.215L257.104 128.43C257.104 128.43 244.196 104.412 237.644 97.8275C231.091 91.2429 209.85 83.0553 185.344 92.7201C170.961 112.725 103.423 133.333 103.423 133.333Z" fill="#E1ECFF"/>
<g style="mix-blend-mode:multiply">
<path d="M97.4414 140.328C97.4414 140.328 127.004 149.627 160.281 137.028C193.558 124.43 199.587 88.9453 199.587 88.9453L185.327 92.7484L103.422 133.356L97.4414 140.328Z" fill="#E1ECFF"/>
</g>
<path d="M217.781 249.185C217.781 249.185 255.158 249.42 265.661 252.05C276.163 254.68 303.962 316.34 315.464 322.244C326.967 328.148 336.737 318.342 349.41 311.06C362.082 303.779 373.697 294.968 374.06 291.291C374.424 287.613 369.041 272.92 364.386 269.955C359.731 266.99 346.214 266.78 339.003 271.306C328.41 243.019 313.348 201.767 299.537 196.088C285.725 190.41 243.87 187.707 243.87 187.707L217.781 249.185Z" fill="#E1ECFF"/>
<g style="mix-blend-mode:multiply" opacity="0.51">
<path d="M257.102 222.188C257.102 222.188 287.536 225.451 295.944 236.551C304.351 247.651 321.011 315.572 339.659 317.18C339.959 339.181 301.337 347.128 301.337 347.128L208.758 246.31L257.102 222.188Z" fill="#E1ECFF"/>
</g>
<path d="M117.363 243.618C117.363 243.618 140.346 290.863 161.191 303.749C182.036 316.636 219.803 315.593 230.221 324.032C240.638 332.471 238.436 373.011 248.847 383.75C259.259 394.488 273.91 401.068 287.603 399.858C301.297 398.648 312.254 392.21 312.393 386.17C312.532 380.13 311.981 374.892 305.546 371.67C299.111 368.449 290.046 365.766 289.656 362.011C289.265 358.255 281.986 301.073 278.966 285.53C275.946 269.988 252.493 248.369 222.267 237.479C193.645 213.99 149.684 224.053 149.684 224.053L117.363 243.618Z" fill="#E1ECFF"/>
<g style="mix-blend-mode:multiply">
<path d="M124.05 256.243C124.05 256.243 150.427 257.563 174.115 247.364C169.588 223.739 155.622 216.762 155.622 216.762L117.363 243.603L124.05 256.243Z" fill="#E1ECFF"/>
</g>
<path d="M160.55 9.54178C139.892 -1.29642 96.5984 -4.95279 69.874 27.5304C43.1496 60.0135 56.469 93.7015 67.6986 109.385C79.4574 125.844 119.875 150.999 163.014 127.374C206.153 103.749 210.674 35.8489 160.55 9.54178Z" fill="#E1ECFF"/>
<path d="M156.996 29.3796C175.345 33.6751 187.265 58.9083 181.102 83.0676C174.939 107.227 153.709 123.471 129.882 123.602C106.054 123.733 82.3605 107.788 82.4888 77.9707C82.6171 49.3168 117.15 20.0553 156.996 29.3796Z" fill="#1C3177"/>
<g style="mix-blend-mode:multiply">
<path d="M104.137 218.121C128.044 207.246 110.16 182.416 133.993 176.77C165.416 181.149 174.107 179.577 174.107 179.577C174.107 179.577 113.993 231.322 104.137 218.121Z" fill="#E1ECFF"/>
</g>
<path d="M124.051 151.687L163.838 252.028L220.125 250.714L271.618 218.77L286.958 173.133L249.709 63.6094L231.627 114.883L184.79 151.389L124.051 151.687Z" fill="#FF97C9"/>
<path d="M104.128 218.124C117.319 217.076 124.038 208.658 128.036 204.923C130.072 203.017 129.666 201.345 128.64 195.845C127.614 190.345 131.173 184.703 136.037 182.288C138.71 189.334 141.991 190.67 144.525 190.34C147.058 190.01 149.661 175.175 157.946 175.306C166.23 175.437 172.874 186.18 173.981 191.545C175.087 196.909 169.737 212.21 163.024 222.949C156.31 233.687 146.839 246.982 125.518 251.141C104.198 255.301 92.0755 244.63 85.0897 231.141C82.7326 226.589 81.8828 220.298 81.9576 213.289C81.9576 213.289 86.7306 219.465 104.128 218.124Z" fill="#E1ECFF"/>
<path d="M262.535 101.335C262.535 101.335 265.074 109.429 263.364 112.582C261.653 115.736 259.323 118.344 257.613 122.383C255.902 126.422 258.436 141.645 265.967 144.259C273.498 146.873 279.73 140.031 281.718 136.071C283.706 132.111 282.605 121.713 279.66 114.463C276.715 107.213 271.178 100.77 262.535 101.335Z" fill="#E1ECFF"/>
<path d="M271.197 0.789792L272.886 4.14234C272.987 4.34549 273.138 4.52135 273.324 4.65464C273.51 4.78793 273.727 4.87461 273.955 4.90715L277.734 5.43099C277.998 5.46807 278.246 5.57699 278.451 5.7454C278.655 5.91381 278.807 6.13496 278.889 6.38373C278.971 6.63249 278.981 6.89892 278.917 7.15274C278.852 7.40657 278.717 7.63763 278.525 7.81968L275.794 10.4389C275.628 10.5966 275.504 10.7916 275.432 11.007C275.36 11.2225 275.343 11.4518 275.382 11.6751L276.024 15.342C276.069 15.5991 276.04 15.8636 275.94 16.1055C275.84 16.3473 275.673 16.557 275.458 16.7106C275.243 16.8643 274.988 16.9559 274.722 16.9751C274.457 16.9943 274.191 16.9403 273.955 16.8192L270.572 15.0801C270.368 14.9741 270.14 14.9187 269.909 14.9187C269.678 14.9187 269.45 14.9741 269.246 15.0801L265.863 16.8192C265.627 16.9418 265.361 16.9969 265.094 16.9785C264.828 16.96 264.572 16.8686 264.356 16.7147C264.14 16.5608 263.972 16.3505 263.872 16.1079C263.772 15.8652 263.743 15.5998 263.789 15.342L264.436 11.6751C264.475 11.4518 264.458 11.2225 264.386 11.007C264.315 10.7916 264.19 10.5966 264.024 10.4389L261.293 7.81968C261.102 7.63763 260.966 7.40657 260.901 7.15274C260.837 6.89892 260.847 6.63249 260.929 6.38373C261.011 6.13496 261.163 5.91381 261.368 5.7454C261.572 5.57699 261.82 5.46807 262.084 5.43099L265.863 4.90715C266.091 4.87461 266.308 4.78793 266.494 4.65464C266.681 4.52135 266.831 4.34549 266.932 4.14234L268.621 0.789792C268.738 0.552999 268.922 0.353368 269.149 0.213712C269.377 0.0740559 269.64 0 269.909 0C270.178 0 270.441 0.0740559 270.669 0.213712C270.897 0.353368 271.08 0.552999 271.197 0.789792V0.789792Z" fill="#FEC272"/>
<path d="M90.3675 355.587L91.7839 358.4C91.8683 358.57 91.9945 358.718 92.1511 358.829C92.3077 358.941 92.4901 359.013 92.6818 359.039L95.8514 359.489C96.0723 359.521 96.2798 359.612 96.4504 359.754C96.621 359.895 96.748 360.08 96.8169 360.288C96.8859 360.496 96.894 360.719 96.8405 360.931C96.787 361.144 96.674 361.337 96.5141 361.49L94.2212 363.68C94.0803 363.813 93.9754 363.979 93.9157 364.162C93.8561 364.344 93.8435 364.539 93.8791 364.728L94.4136 367.818C94.4503 368.034 94.425 368.255 94.3407 368.458C94.2563 368.66 94.1162 368.835 93.9359 368.964C93.7557 369.093 93.5424 369.17 93.32 369.187C93.0976 369.204 92.8748 369.16 92.6765 369.06L89.8437 367.598C89.6721 367.51 89.4814 367.465 89.2878 367.465C89.0943 367.465 88.9036 367.51 88.732 367.598L85.9099 369.049C85.7118 369.151 85.4884 369.197 85.265 369.181C85.0417 369.165 84.8274 369.088 84.6465 368.959C84.4656 368.83 84.3253 368.653 84.2415 368.45C84.1578 368.246 84.134 368.024 84.1728 367.808L84.7073 364.717C84.7403 364.528 84.726 364.334 84.6655 364.151C84.605 363.969 84.5001 363.803 84.3599 363.669L82.0722 361.48C81.9124 361.327 81.7993 361.133 81.7458 360.921C81.6923 360.708 81.7005 360.486 81.7694 360.277C81.8384 360.069 81.9653 359.884 82.136 359.743C82.3066 359.602 82.5141 359.51 82.735 359.479L85.8992 359.028C86.0915 359.002 86.2743 358.93 86.4317 358.818C86.5891 358.707 86.7164 358.56 86.8025 358.389L88.2189 355.576C88.3186 355.38 88.4724 355.215 88.6629 355.1C88.8533 354.985 89.0728 354.925 89.2965 354.926C89.5202 354.927 89.7391 354.989 89.9284 355.106C90.1177 355.223 90.2698 355.389 90.3675 355.587V355.587Z" fill="#FEC272"/>
<g style="mix-blend-mode:soft-light" opacity="0.48">
<path d="M140.98 59.5088C154.134 56.6673 163.966 50.6672 162.94 46.1072C161.915 41.5473 150.42 40.1542 137.266 42.9957C124.112 45.8371 114.281 51.8372 115.306 56.3972C116.332 60.9571 127.826 62.3503 140.98 59.5088Z" fill="white"/>
</g>
<g style="mix-blend-mode:multiply">
<path d="M170.939 206.569C170.939 206.569 155.807 193.316 153.065 193.316C150.324 193.316 143.022 203.793 144.669 206.569C146.315 209.346 154.77 218.44 164.055 221.237C167.064 215.611 170.939 206.569 170.939 206.569Z" fill="#E1ECFF"/>
</g>
<g style="mix-blend-mode:multiply" opacity="0.5">
<path d="M184.793 151.377L220.128 250.702L271.621 218.758L231.63 114.871L184.793 151.377Z" fill="#FF97C9"/>
</g>
<g style="mix-blend-mode:multiply">
<path d="M281.999 304.496C276.703 308.796 270.751 312.256 264.361 314.748C258.369 317.011 256.344 321.641 258.156 330.138C259.967 338.635 260.983 351.882 264.724 355.371C268.466 358.86 281.336 357.005 288.007 348.897C285.917 332.919 281.999 304.496 281.999 304.496Z" fill="#E1ECFF"/>
</g>
<g style="mix-blend-mode:multiply">
<path d="M316.87 217.891C316.87 217.891 309.388 221.086 310.098 226.183C310.809 231.28 318.452 255.916 321.467 258.137C324.481 260.358 333.402 256.419 333.402 256.419C324.241 230.981 316.87 217.891 316.87 217.891Z" fill="#E1ECFF"/>
</g>
<path d="M1.09849 276.816C-4.85036 264.726 14.5355 251.787 31.0298 252.719C47.5242 253.652 54.4565 268.576 60.2984 274.144C72.5008 285.763 72.116 297.13 63.6657 302.018C55.2154 306.905 8.97151 292.809 1.09849 276.816Z" fill="#99ADF9"/>
<path d="M333.847 89.539C329.037 85.4111 333.986 66.0082 345.35 61.4665C356.713 56.9249 370.823 61.8909 373.838 69.6751C376.852 77.4593 343.709 97.9937 333.847 89.539Z" fill="#99ADF9"/>
<path d="M389.529 99.8895C387.065 103.331 385.424 113.132 390.625 114.876C395.825 116.621 399.759 106.537 397.931 101.288C396.103 96.0393 391.175 97.5898 389.529 99.8895Z" fill="#99ADF9"/>
<path opacity="0.44" d="M393.273 20.3631C389.393 22.1546 382.995 29.855 386.63 33.9043C390.264 37.9536 398.778 31.1123 399.853 25.6696C400.927 20.2269 395.865 19.1688 393.273 20.3631Z" fill="#99ADF9"/>
<path opacity="0.44" d="M28.3863 327.693C25.0297 325.074 15.1577 322.848 13.0518 327.83C10.9459 332.811 20.9729 337.259 26.414 335.823C31.8551 334.388 30.6204 329.443 28.3863 327.693Z" fill="#99ADF9"/>
<g style="mix-blend-mode:multiply" opacity="0.64">
<path d="M57.3762 270.859C51.406 271.959 52.3681 277.193 54.2815 281.933C56.195 286.674 62.9296 288.026 67.6812 283.693C64.5972 276.501 57.3762 270.859 57.3762 270.859Z" fill="#99ADF9"/>
</g>
<g style="mix-blend-mode:multiply" opacity="0.64">
<path d="M23.0518 262.953C18.7759 263.419 15.291 269.485 18.3055 274.404C21.32 279.323 27.0658 282.906 30.3529 281.565C33.64 280.224 34.1905 272.974 31.8174 268.322C29.4443 263.67 27.162 262.502 23.0518 262.953Z" fill="#99ADF9"/>
</g>
<g style="mix-blend-mode:multiply" opacity="0.64">
<path d="M360.498 65.6333C358.152 66.3667 355.773 68.8549 355.982 71.5422C356.19 74.2295 358.585 76.5763 361.182 76.2567C363.78 75.9372 365.993 71.825 365.458 68.8706C364.924 65.9162 362.288 65.078 360.498 65.6333Z" fill="#99ADF9"/>
</g>
<g style="mix-blend-mode:multiply" opacity="0.64">
<path d="M335.65 70.8906C335.65 70.8906 338.857 74.0336 338.323 77.601C337.788 81.1683 332.262 80.8383 332.262 80.8383C332.262 80.8383 333.085 74.7565 335.65 70.8906Z" fill="#99ADF9"/>
</g>
</svg>
