<svg width="100" height="100" viewBox="0 0 100 100" fill="none" xmlns="http://www.w3.org/2000/svg">
<path d="M100 50C100 77.6142 77.6142 100 50 100C22.3858 100 0 77.6142 0 50C0 22.3858 22.3858 0 50 0C77.6142 0 100 22.3858 100 50Z" fill="#0081E1"/>
<path d="M88.5794 49.9967C88.5794 71.3054 71.3054 88.5794 49.9967 88.5794C28.6881 88.5794 11.4141 71.3054 11.4141 49.9967C11.4141 28.6881 28.6881 11.4141 49.9967 11.4141C71.3054 11.4141 88.5794 28.6881 88.5794 49.9967Z" fill="white"/>
<path fill-rule="evenodd" clip-rule="evenodd" d="M49.9982 12.4746C29.2745 12.4746 12.4746 29.2745 12.4746 49.9982C12.4746 70.7218 29.2745 87.5217 49.9982 87.5217C70.7218 87.5217 87.5217 70.7218 87.5217 49.9982C87.5217 29.2745 70.7218 12.4746 49.9982 12.4746ZM10.2344 49.9982C10.2344 28.0372 28.0372 10.2344 49.9982 10.2344C71.9591 10.2344 89.7619 28.0372 89.7619 49.9982C89.7619 71.9591 71.9591 89.7619 49.9982 89.7619C28.0372 89.7619 10.2344 71.9591 10.2344 49.9982Z" fill="#0081E1"/>
<path d="M76.377 49.999C76.377 64.5672 64.5672 76.377 49.999 76.377C35.4309 76.377 23.6211 64.5672 23.6211 49.999C23.6211 35.4309 35.4309 23.6211 49.999 23.6211C64.5672 23.6211 76.377 35.4309 76.377 49.999Z" fill="#0081E1"/>
<path d="M66.1389 50.0011C66.1389 58.9159 58.912 66.1428 49.9972 66.1428C41.0824 66.1428 33.8555 58.9159 33.8555 50.0011C33.8555 41.0863 41.0824 33.8594 49.9972 33.8594C58.912 33.8594 66.1389 41.0863 66.1389 50.0011Z" fill="white"/>
<path fill-rule="evenodd" clip-rule="evenodd" d="M50.0017 34.5751C41.4796 34.5751 34.5712 41.4835 34.5712 50.0056C34.5712 58.5276 41.4796 65.4361 50.0017 65.4361C58.5237 65.4361 65.4322 58.5276 65.4322 50.0056C65.4322 41.4835 58.5237 34.5751 50.0017 34.5751ZM32.2852 50.0056C32.2852 40.221 40.2171 32.2891 50.0017 32.2891C59.7863 32.2891 67.7182 40.221 67.7182 50.0056C67.7182 59.7902 59.7863 67.7221 50.0017 67.7221C40.2171 67.7221 32.2852 59.7902 32.2852 50.0056Z" fill="#0081E1"/>
<path d="M56.2976 49.9984C56.2976 53.4774 53.4774 56.2976 49.9984 56.2976C46.5195 56.2976 43.6992 53.4774 43.6992 49.9984C43.6992 46.5195 46.5195 43.6992 49.9984 43.6992C53.4774 43.6992 56.2976 46.5195 56.2976 49.9984Z" fill="#0081E1"/>
<path d="M82.4532 13.7005L48.462 47.6917C48.3052 47.8486 48.1915 48.0481 48.1765 48.2694C48.0569 50.0238 49.7052 51.6721 51.4595 51.5525C51.6809 51.5374 51.8804 51.4238 52.0373 51.267L86.0699 17.2343C86.2558 17.0485 86.5009 16.9337 86.7627 16.9099L90.3222 16.5863C90.584 16.5625 90.8291 16.4477 91.015 16.2618L95.4303 11.8465C96.0965 11.1803 95.6962 10.0393 94.7599 9.93526L90.8262 9.49818C90.3039 9.44015 89.8916 9.02784 89.8336 8.50554L89.3965 4.57188C89.2924 3.6355 88.1515 3.23527 87.4853 3.90146L83.1114 8.27532C82.9007 8.48604 82.7823 8.77183 82.7823 9.06983L82.7823 12.906C82.7823 13.204 82.6639 13.4898 82.4532 13.7005Z" fill="#FFCE20"/>
</svg>
