<svg width="65" height="60" viewBox="0 0 65 60" fill="none" xmlns="http://www.w3.org/2000/svg">
<path d="M55.6154 51.6957C55.1231 56.7044 49 59 49 59C49 59 63 54.5131 63 49.087V34.5L56 36C56.2051 38.7826 56.1077 46.687 55.6154 51.6957Z" fill="#898C89" fill-opacity="0.39"/>
<path d="M63 49.087C63 54.5131 49 59 49 59C49 59 55.1231 56.7044 55.6154 51.6957C56.1077 46.687 56.2051 38.7826 56 36L63 34.5M63 49.087C63 43.6609 63 36.9348 63 34.5M63 49.087V34.5" stroke="black" stroke-opacity="0.1"/>
<path d="M21.5 8.5C21.5 6.5 24.5 2 30.5 2C36.5 2 39 7.5 39 8.5" stroke="url(#paint0_radial_128_5)" stroke-width="4"/>
<path d="M1 17.5V31.5V34L33.0081 35.5L56 36L64 34.5C63.8306 31.3333 63.3903 23.1 62.9839 17.5C62.5774 11.9 58.4113 9.5 56.379 9H9.12903C5.06452 9 2.01613 14.6667 1 17.5Z" fill="#BE9D9D" fill-opacity="0.59" stroke="black" stroke-opacity="0.1"/>
<path d="M0.415539 29.4879L0.5 31.9245V34.4717L28.4435 36H50.1774H55.5C55.3521 32.7736 54.9677 23.366 54.6129 17.6604C54.2581 11.9547 50.621 9.50943 48.8468 9H7.59677C-0.295423 9 0.134784 21.3973 0.410431 29.3407L0.415539 29.4879Z" fill="#917B7B"/>
<path d="M2 46V34.5L56 36C56.1667 38.6667 55.9 47.2 55.5 52C55.1 56.8 50.6667 58.6667 48.5 59C39.1667 58.5 18.7 57.2 11.5 56C4.3 54.8 2.16667 48.8333 2 46Z" fill="#898C89" stroke="black" stroke-opacity="0.1"/>
<g filter="url(#filter0_d_128_5)">
<g filter="url(#filter1_b_128_5)">
<path d="M23 39V31C23 30.4477 23.4477 30 24 30H32C32.5523 30 33 30.4477 33 31V39C33 39.5523 32.5523 40 32 40H24C23.4477 40 23 39.5523 23 39Z" fill="#D9D9D9"/>
</g>
<g filter="url(#filter2_b_128_5)">
<path d="M24 31V38C24 38.5523 24.4477 39 25 39H31C31.5523 39 32 38.5523 32 38V31" stroke="black" stroke-opacity="0.1" stroke-width="0.5"/>
</g>
</g>
<defs>
<filter id="filter0_d_128_5" x="22.5" y="30" width="12" height="12" filterUnits="userSpaceOnUse" color-interpolation-filters="sRGB">
<feFlood flood-opacity="0" result="BackgroundImageFix"/>
<feColorMatrix in="SourceAlpha" type="matrix" values="0 0 0 0 0 0 0 0 0 0 0 0 0 0 0 0 0 0 127 0" result="hardAlpha"/>
<feOffset dx="0.5" dy="1"/>
<feGaussianBlur stdDeviation="0.5"/>
<feComposite in2="hardAlpha" operator="out"/>
<feColorMatrix type="matrix" values="0 0 0 0 0 0 0 0 0 0 0 0 0 0 0 0 0 0 0.78 0"/>
<feBlend mode="normal" in2="BackgroundImageFix" result="effect1_dropShadow_128_5"/>
<feBlend mode="normal" in="SourceGraphic" in2="effect1_dropShadow_128_5" result="shape"/>
</filter>
<filter id="filter1_b_128_5" x="4" y="11" width="48" height="48" filterUnits="userSpaceOnUse" color-interpolation-filters="sRGB">
<feFlood flood-opacity="0" result="BackgroundImageFix"/>
<feGaussianBlur in="BackgroundImageFix" stdDeviation="9.5"/>
<feComposite in2="SourceAlpha" operator="in" result="effect1_backgroundBlur_128_5"/>
<feBlend mode="normal" in="SourceGraphic" in2="effect1_backgroundBlur_128_5" result="shape"/>
</filter>
<filter id="filter2_b_128_5" x="4.75" y="12" width="46.5" height="46.25" filterUnits="userSpaceOnUse" color-interpolation-filters="sRGB">
<feFlood flood-opacity="0" result="BackgroundImageFix"/>
<feGaussianBlur in="BackgroundImageFix" stdDeviation="9.5"/>
<feComposite in2="SourceAlpha" operator="in" result="effect1_backgroundBlur_128_5"/>
<feBlend mode="normal" in="SourceGraphic" in2="effect1_backgroundBlur_128_5" result="shape"/>
</filter>
<radialGradient id="paint0_radial_128_5" cx="0" cy="0" r="1" gradientUnits="userSpaceOnUse" gradientTransform="translate(21 6.5) rotate(1.7357) scale(16.5076 44.4435)">
<stop offset="0.0600893" stop-color="#78674E" stop-opacity="0.5958"/>
<stop offset="0.391369" stop-color="#A29788"/>
<stop offset="1" stop-color="#706657" stop-opacity="0.45"/>
</radialGradient>
</defs>
</svg>
