<svg width="63" height="64" viewBox="0 0 63 64" fill="none" xmlns="http://www.w3.org/2000/svg">
<path d="M33 1L31 18.1728V20.3107C36.4863 19.5 41 26.5 41 31L61 31.0378C59.8197 5.38259 37 1 33 1Z" fill="#FFCE20" fill-opacity="0.55"/>
<g filter="url(#filter0_d_138_137)">
<path d="M31.0137 1V19V20C36.5219 20.4 41 25.5 41 31H59.0137C57.912 7 39.888 1 31.0137 1Z" fill="url(#paint0_linear_138_137)"/>
</g>
<path d="M41.6307 33.0001L61.0005 33.0001C61.0005 33.0001 61.6133 36.5 60.5005 42.5C59.1827 49.6052 51.0005 56 51.0005 56L40.0825 38.7942L41.631 36.3244L41.6307 33.0001Z" fill="#EF5454" fill-opacity="0.65"/>
<g filter="url(#filter1_d_138_137)">
<path d="M51.0005 56L39.0006 41.5C39.0006 41.5 40.4189 37.8716 40.7176 36.0904C41.0162 34.3092 41.0011 33.0004 41.0011 33.0004L59.0009 33.0002C59.0009 33.0002 60.0726 36.502 58.1385 42.88C56.2043 49.258 51.0005 56 51.0005 56Z" fill="url(#paint1_linear_138_137)"/>
</g>
<path d="M28.6094 20L28.6093 1C8.20924 6.2 4.61673 22.5 6.11647 37C11.6171 69 42.6095 62 49.6095 57L38.0005 42C35.0005 44.5 22.0094 44.3 21.6094 33.5C21.2094 22.7 26.1094 20 28.6094 20Z" fill="url(#paint2_linear_138_137)" fill-opacity="0.6"/>
<g filter="url(#filter2_d_138_137)">
<path d="M26.3154 20.5L25.5142 2C1.99988 4.5 1.05484 30.5 2.00026 36C7.50085 68 39.8081 63.5 46.8081 58.5L35.8081 43C30.3081 44.8333 18.7154 44.3 18.3154 33.5C17.9154 22.7 23.8154 20.5 26.3154 20.5Z" fill="url(#paint3_linear_138_137)"/>
</g>
<defs>
<filter id="filter0_d_138_137" x="30.0137" y="0" width="30" height="32" filterUnits="userSpaceOnUse" color-interpolation-filters="sRGB">
<feFlood flood-opacity="0" result="BackgroundImageFix"/>
<feColorMatrix in="SourceAlpha" type="matrix" values="0 0 0 0 0 0 0 0 0 0 0 0 0 0 0 0 0 0 127 0" result="hardAlpha"/>
<feOffset/>
<feGaussianBlur stdDeviation="0.5"/>
<feComposite in2="hardAlpha" operator="out"/>
<feColorMatrix type="matrix" values="0 0 0 0 0.870833 0 0 0 0 0.686434 0 0 0 0 0.0326563 0 0 0 1 0"/>
<feBlend mode="normal" in2="BackgroundImageFix" result="effect1_dropShadow_138_137"/>
<feBlend mode="normal" in="SourceGraphic" in2="effect1_dropShadow_138_137" result="shape"/>
</filter>
<filter id="filter1_d_138_137" x="37.5005" y="31.5" width="23.2964" height="26" filterUnits="userSpaceOnUse" color-interpolation-filters="sRGB">
<feFlood flood-opacity="0" result="BackgroundImageFix"/>
<feColorMatrix in="SourceAlpha" type="matrix" values="0 0 0 0 0 0 0 0 0 0 0 0 0 0 0 0 0 0 127 0" result="hardAlpha"/>
<feOffset/>
<feGaussianBlur stdDeviation="0.75"/>
<feComposite in2="hardAlpha" operator="out"/>
<feColorMatrix type="matrix" values="0 0 0 0 0.954167 0 0 0 0 0.337934 0 0 0 0 0.337934 0 0 0 0.76 0"/>
<feBlend mode="normal" in2="BackgroundImageFix" result="effect1_dropShadow_138_137"/>
<feBlend mode="normal" in="SourceGraphic" in2="effect1_dropShadow_138_137" result="shape"/>
</filter>
<filter id="filter2_d_138_137" x="0.770996" y="1" width="47.0371" height="62.0259" filterUnits="userSpaceOnUse" color-interpolation-filters="sRGB">
<feFlood flood-opacity="0" result="BackgroundImageFix"/>
<feColorMatrix in="SourceAlpha" type="matrix" values="0 0 0 0 0 0 0 0 0 0 0 0 0 0 0 0 0 0 127 0" result="hardAlpha"/>
<feOffset/>
<feGaussianBlur stdDeviation="0.5"/>
<feComposite in2="hardAlpha" operator="out"/>
<feColorMatrix type="matrix" values="0 0 0 0 0 0 0 0 0 0.505882 0 0 0 0 0.882353 0 0 0 0.52 0"/>
<feBlend mode="normal" in2="BackgroundImageFix" result="effect1_dropShadow_138_137"/>
<feBlend mode="normal" in="SourceGraphic" in2="effect1_dropShadow_138_137" result="shape"/>
</filter>
<linearGradient id="paint0_linear_138_137" x1="33" y1="1" x2="61" y2="38.5" gradientUnits="userSpaceOnUse">
<stop stop-color="#FFCE20"/>
<stop offset="0.567708" stop-color="#F2D25F"/>
<stop offset="1" stop-color="#C19700"/>
</linearGradient>
<linearGradient id="paint1_linear_138_137" x1="43.0005" y1="33" x2="56.0005" y2="55" gradientUnits="userSpaceOnUse">
<stop stop-color="#FF6565"/>
<stop offset="0.515625" stop-color="#F85454"/>
<stop offset="0.953125" stop-color="#CD5B5B"/>
</linearGradient>
<linearGradient id="paint2_linear_138_137" x1="24.0005" y1="-1.5" x2="50.0005" y2="66" gradientUnits="userSpaceOnUse">
<stop stop-color="#3A9AE1" stop-opacity="0.67"/>
<stop offset="0.515625" stop-color="#3C8ECC" stop-opacity="0.91"/>
<stop offset="1" stop-color="#0081E1" stop-opacity="0.6"/>
</linearGradient>
<linearGradient id="paint3_linear_138_137" x1="7" y1="2" x2="34.5" y2="75.5" gradientUnits="userSpaceOnUse">
<stop offset="0.03125" stop-color="#0168B5"/>
<stop offset="0.427083" stop-color="#2775AF"/>
<stop offset="0.729167" stop-color="#3489C8"/>
<stop offset="1" stop-color="#094E81"/>
</linearGradient>
</defs>
</svg>
