<svg width="65" height="65" viewBox="0 0 65 65" fill="none" xmlns="http://www.w3.org/2000/svg">
<path d="M41.5 58.5496L42.5 64.0076L39 65L34 64.5038H31L21.5 64.0076V59.0458V53.0916L20 52.0992L11.5 56.5649L3.5 45.6489L8.74916 40.4398C9.91198 39.2858 10.9286 37.9934 11.7762 36.5915L12 36.2214L0 36.7176V23.8168H15.5L6 14.3893L15 3.47328L24 11.4122L24.5 0H40L42 12.4046L42.3132 11.5892C43.0991 9.54363 44.2157 7.64113 45.6186 5.95773L46 5.5L48 2.9771L58 14.3893L55.5 21.3359V25.8015L64 28.2824L65 39.1985L60 39.5H56L52.5 45.1527L58 51.6031L48 60.0382L44.5 56.5649L41.5 58.5496Z" fill="url(#paint0_radial_120_30)" fill-opacity="0.68"/>
<path d="M22.5982 10.748L24.1786 0H33.1339L35.7679 9.72441L41.5625 10.748L46 5.5L53 14.5L48.4107 21.4961L51.0446 26.6142L58.9464 28.1496L60 39.4094H49.9911L47.3571 44.5276L54.5 54.7638L47.3571 60.3937L40.5089 54.7638C37.8155 54.7638 35.5582 56.8006 35.2824 59.4799L34.7143 65L23.6518 64.6076V55.2756L21.8259 53.8878L20 52.5L11.5357 58L5 48L12 41.5L9 36.5H0V26.6142H8.5L9.95536 23.0315L5.74107 14.3307L13.1161 5.62992L17.8571 10.748H22.5982Z" fill="#7A737D"/>
<g filter="url(#filter0_i_120_30)">
<ellipse cx="28.5" cy="32" rx="8.5" ry="9" fill="#565772"/>
</g>
<path d="M37 31.9999C37 36.6318 34 39.5 31.5 40.5C29.5 39 26 36.4182 26 31.9999C26 27.5816 30 25.6319 32 24C33.5 24 37 27.5816 37 31.9999Z" fill="white" fill-opacity="0.89"/>
<defs>
<filter id="filter0_i_120_30" x="20" y="23" width="21" height="22" filterUnits="userSpaceOnUse" color-interpolation-filters="sRGB">
<feFlood flood-opacity="0" result="BackgroundImageFix"/>
<feBlend mode="normal" in="SourceGraphic" in2="BackgroundImageFix" result="shape"/>
<feColorMatrix in="SourceAlpha" type="matrix" values="0 0 0 0 0 0 0 0 0 0 0 0 0 0 0 0 0 0 127 0" result="hardAlpha"/>
<feOffset dx="5" dy="4"/>
<feGaussianBlur stdDeviation="2"/>
<feComposite in2="hardAlpha" operator="arithmetic" k2="-1" k3="1"/>
<feColorMatrix type="matrix" values="0 0 0 0 0.216609 0 0 0 0 0.176797 0 0 0 0 0.176797 0 0 0 0.29 0"/>
<feBlend mode="normal" in2="shape" result="effect1_innerShadow_120_30"/>
</filter>
<radialGradient id="paint0_radial_120_30" cx="0" cy="0" r="1" gradientUnits="userSpaceOnUse" gradientTransform="translate(-1.99998 -4.96182) rotate(46.8183) scale(89.1403 83.6553)">
<stop stop-color="#7B717F"/>
<stop offset="1" stop-color="#9F8791" stop-opacity="0.75"/>
</radialGradient>
</defs>
</svg>
