<svg width="65" height="58" viewBox="0 0 65 58" fill="none" xmlns="http://www.w3.org/2000/svg">
<path d="M44.9404 1H57.8166L58.2688 57H44.9404C44.3881 57 43.9404 56.5523 43.9404 56V2C43.9404 1.44772 44.3881 1 44.9404 1Z" fill="#EF5454"/>
<g filter="url(#filter0_d_133_49)">
<path d="M57.791 1L63.1417 1.76602C63.6342 1.83652 64 2.25839 64 2.75592V54.0386C64 54.448 63.7504 54.8161 63.3701 54.9676L58.2686 57L57.791 1Z" fill="url(#paint0_linear_133_49)" fill-opacity="0.7" shape-rendering="crispEdges"/>
</g>
<path d="M22.9707 10.7783H35.8469L36.2991 57.0005H22.9707C22.4184 57.0005 21.9707 56.5528 21.9707 56.0005V11.7783C21.9707 11.226 22.4184 10.7783 22.9707 10.7783Z" fill="#FFCE20"/>
<g filter="url(#filter1_d_133_49)">
<path d="M35.8213 10.7783L41.1476 11.4077C41.651 11.4672 42.0302 11.8939 42.0302 12.4008V54.392C42.0302 54.824 41.7529 55.2071 41.3426 55.342L36.2989 57.0005L35.8213 10.7783Z" fill="url(#paint1_linear_133_49)" fill-opacity="0.7" shape-rendering="crispEdges"/>
</g>
<path d="M1 24.1113H13.8762L14.3284 57.0002H1C0.447715 57.0002 0 56.5525 0 56.0002V25.1113C0 24.559 0.447716 24.1113 1 24.1113Z" fill="#0081E1"/>
<g filter="url(#filter2_d_133_49)">
<path d="M13.8506 24.1113L19.1433 24.5563C19.6613 24.5999 20.0595 25.033 20.0595 25.5528V54.8662C20.0595 55.3307 19.7397 55.7341 19.2874 55.8399L14.3282 57.0002L13.8506 24.1113Z" fill="url(#paint2_linear_133_49)" fill-opacity="0.62" shape-rendering="crispEdges"/>
</g>
<defs>
<filter id="filter0_d_133_49" x="56.791" y="0" width="8.20898" height="58" filterUnits="userSpaceOnUse" color-interpolation-filters="sRGB">
<feFlood flood-opacity="0" result="BackgroundImageFix"/>
<feColorMatrix in="SourceAlpha" type="matrix" values="0 0 0 0 0 0 0 0 0 0 0 0 0 0 0 0 0 0 127 0" result="hardAlpha"/>
<feOffset/>
<feGaussianBlur stdDeviation="0.5"/>
<feComposite in2="hardAlpha" operator="out"/>
<feColorMatrix type="matrix" values="0 0 0 0 0.756863 0 0 0 0 0.254902 0 0 0 0 0.254902 0 0 0 1 0"/>
<feBlend mode="normal" in2="BackgroundImageFix" result="effect1_dropShadow_133_49"/>
<feBlend mode="normal" in="SourceGraphic" in2="effect1_dropShadow_133_49" result="shape"/>
</filter>
<filter id="filter1_d_133_49" x="34.8213" y="9.77832" width="8.20898" height="48.2227" filterUnits="userSpaceOnUse" color-interpolation-filters="sRGB">
<feFlood flood-opacity="0" result="BackgroundImageFix"/>
<feColorMatrix in="SourceAlpha" type="matrix" values="0 0 0 0 0 0 0 0 0 0 0 0 0 0 0 0 0 0 127 0" result="hardAlpha"/>
<feOffset/>
<feGaussianBlur stdDeviation="0.5"/>
<feComposite in2="hardAlpha" operator="out"/>
<feColorMatrix type="matrix" values="0 0 0 0 0.784314 0 0 0 0 0.356863 0 0 0 0 0.176471 0 0 0 1 0"/>
<feBlend mode="normal" in2="BackgroundImageFix" result="effect1_dropShadow_133_49"/>
<feBlend mode="normal" in="SourceGraphic" in2="effect1_dropShadow_133_49" result="shape"/>
</filter>
<filter id="filter2_d_133_49" x="11.8506" y="23.1113" width="8.20898" height="34.8887" filterUnits="userSpaceOnUse" color-interpolation-filters="sRGB">
<feFlood flood-opacity="0" result="BackgroundImageFix"/>
<feColorMatrix in="SourceAlpha" type="matrix" values="0 0 0 0 0 0 0 0 0 0 0 0 0 0 0 0 0 0 127 0" result="hardAlpha"/>
<feOffset dx="-1"/>
<feGaussianBlur stdDeviation="0.5"/>
<feComposite in2="hardAlpha" operator="out"/>
<feColorMatrix type="matrix" values="0 0 0 0 0.124986 0 0 0 0 0.579993 0 0 0 0 1 0 0 0 0.78 0"/>
<feBlend mode="normal" in2="BackgroundImageFix" result="effect1_dropShadow_133_49"/>
<feBlend mode="normal" in="SourceGraphic" in2="effect1_dropShadow_133_49" result="shape"/>
</filter>
<linearGradient id="paint0_linear_133_49" x1="60.8955" y1="1" x2="41" y2="64.5" gradientUnits="userSpaceOnUse">
<stop offset="0.015625" stop-color="#EF5454"/>
<stop offset="0.546875" stop-color="#C14545"/>
<stop offset="0.895386" stop-color="#F43F3F"/>
</linearGradient>
<linearGradient id="paint1_linear_133_49" x1="38.9258" y1="10.7783" x2="38.9258" y2="57.0005" gradientUnits="userSpaceOnUse">
<stop stop-color="#FFCE20" stop-opacity="0.85"/>
<stop offset="0.432869" stop-color="#FFCE20"/>
<stop offset="1" stop-color="#FFCE20" stop-opacity="0.4"/>
</linearGradient>
<linearGradient id="paint2_linear_133_49" x1="16.9551" y1="24.1113" x2="17.9891" y2="61.0047" gradientUnits="userSpaceOnUse">
<stop stop-color="#0081E1"/>
<stop offset="0.474537" stop-color="#38AAFF"/>
<stop offset="0.918238" stop-color="#003DE1"/>
</linearGradient>
</defs>
</svg>
