<svg width="65" height="67" viewBox="0 0 65 67" fill="none" xmlns="http://www.w3.org/2000/svg">
<path d="M16.1463 65.8256L10.6758 14.1055H54.1646C55.3702 14.1055 56.3936 14.9597 56.5698 16.1128L63.7533 63.1311C63.9702 64.5509 62.8323 65.8256 61.3481 65.8256H16.1463Z" fill="white"/>
<path fill-rule="evenodd" clip-rule="evenodd" d="M9.33594 12.9297H54.1711C55.9794 12.9297 57.5147 14.211 57.7789 15.9407L64.9624 62.959C65.2878 65.0886 63.5809 67.0007 61.3546 67.0007H15.0551L9.33594 12.9297ZM12.0286 15.2806L17.2504 64.6498H61.3546C62.0967 64.6498 62.6656 64.0124 62.5572 63.3026L55.3737 16.2843C55.2856 15.7077 54.7739 15.2806 54.1711 15.2806H12.0286Z" fill="#0081E1"/>
<path d="M28.4922 22.3192C27.8616 23.6879 26.2029 24.3032 24.7873 23.6935C23.3718 23.0837 22.7354 21.4799 23.366 20.1111C23.9966 18.7424 25.6553 18.1271 27.0709 18.7368C28.4865 19.3466 29.1228 20.9504 28.4922 22.3192Z" fill="#FFEC20"/>
<path d="M45.5117 22.3192C44.8811 23.6879 43.2224 24.3032 41.8069 23.6935C40.3913 23.0837 39.755 21.4799 40.3856 20.1111C41.0161 18.7424 42.6749 18.1271 44.0904 18.7368C45.506 19.3466 46.1423 20.9504 45.5117 22.3192Z" fill="#FFEC20"/>
<path d="M3.64642 65.8256H16.1495L10.6791 14.1055H8.61958C7.37258 14.1055 6.32775 15.0177 6.20087 16.2172L1.22771 63.2355C1.08114 64.6212 2.20581 65.8256 3.64642 65.8256Z" fill="#0081E1"/>
<path fill-rule="evenodd" clip-rule="evenodd" d="M8.62053 15.2806C7.99702 15.2806 7.47461 15.7367 7.41117 16.3365L2.438 63.3547C2.36472 64.0476 2.92705 64.6498 3.64736 64.6498H14.8041L9.58232 15.2806H8.62053ZM4.99246 16.0973C5.18277 14.298 6.75002 12.9297 8.62053 12.9297H11.7777L17.4968 67.0007H3.64736C1.48645 67.0007 -0.20056 65.1942 0.0192954 63.1156L4.99246 16.0973Z" fill="#0081E1"/>
<path fill-rule="evenodd" clip-rule="evenodd" d="M34.3855 2.35091C30.3571 2.35091 27.0915 5.50853 27.0915 9.40366V19.9828C27.0915 20.632 26.5472 21.1582 25.8758 21.1582C25.2044 21.1582 24.6602 20.632 24.6602 19.9828V9.40366C24.6602 4.21016 29.0143 0 34.3855 0C39.7566 0 44.1108 4.21016 44.1108 9.40366V19.9828C44.1108 20.632 43.5665 21.1582 42.8951 21.1582C42.2237 21.1582 41.6794 20.632 41.6794 19.9828V9.40366C41.6794 5.50853 38.4138 2.35091 34.3855 2.35091Z" fill="#0081E1"/>
</svg>
