<svg width="70" height="72" viewBox="0 0 70 72" fill="none" xmlns="http://www.w3.org/2000/svg">
<path d="M27.7472 19.4835C26.0429 20.2669 24.5496 21.3497 23.3067 22.6389C22.864 23.0981 22.1679 23.1968 21.704 22.8227L12.367 15.2928C11.8966 14.9135 11.8446 14.1947 12.2715 13.7086C15.0413 10.5551 18.4892 7.91802 22.4972 6.07572C27.1106 3.95515 31.9072 3.14453 36.4801 3.48899C37.0765 3.53391 37.4781 4.07357 37.393 4.68378L35.6561 17.1365C35.5639 17.797 34.942 18.2711 34.2954 18.2306C32.1498 18.0962 29.9067 18.4909 27.7472 19.4835Z" fill="#FFCE20"/>
<path d="M44.5403 61.5993C58.5999 55.1367 65.1717 37.5733 59.2188 22.3704C55.7256 13.4492 48.6958 7.32322 40.642 5.08973C40.0249 4.91858 39.4179 5.37631 39.3235 6.0584L37.504 19.2039C37.4215 19.7998 37.7633 20.3633 38.2866 20.5681C41.6326 21.8771 44.4837 24.6312 45.981 28.4552C48.8384 35.7526 45.6839 44.183 38.9353 47.2851C38.3755 47.5424 37.8085 47.755 37.2378 47.9243C36.6954 48.0852 36.3102 48.6259 36.3539 49.2322L37.3086 62.4653C37.358 63.1496 37.9288 63.6502 38.5535 63.5296C40.5687 63.1408 42.5756 62.5023 44.5403 61.5993Z" fill="#E7E8FF"/>
<path d="M9.73812 17.4721C10.0774 16.9032 10.7904 16.7946 11.2856 17.2152L16.1148 21.3173L20.944 25.4193C21.4008 25.8073 21.5063 26.5094 21.2302 27.0586C20.0529 29.3998 19.48 32.0901 19.6242 34.8207C19.6628 35.5522 19.1602 36.203 18.491 36.2055L6.41054 36.2506C5.8315 36.2527 5.34293 35.7632 5.31793 35.1299C5.06921 28.8283 6.64935 22.6503 9.73812 17.4721Z" fill="#0081E1"/>
<path d="M21.4776 39.6006C23.6882 45.246 28.818 48.5943 34.2007 48.4969C34.8755 48.4847 35.4598 49.0416 35.4593 49.7669L35.4513 63.2C35.4509 63.8528 34.9738 64.3972 34.3665 64.409C23.1401 64.6267 12.4359 57.6489 7.82595 45.8757C7.00327 43.7747 6.41682 41.6286 6.05364 39.4716C5.93479 38.7657 6.43413 38.1191 7.10184 38.0796L19.8259 37.327C20.3738 37.2946 20.8572 37.6883 21.0193 38.25C21.1502 38.7035 21.3028 39.1541 21.4776 39.6006Z" fill="#E7E8FF"/>
<path d="M21.4776 39.6006C23.6882 45.246 28.818 48.5943 34.2007 48.4969C34.8755 48.4847 35.4598 49.0416 35.4593 49.7669L35.4513 63.2C35.4509 63.8528 34.9738 64.3972 34.3665 64.409C23.1401 64.6267 12.4359 57.6489 7.82595 45.8757C7.00327 43.7747 6.41682 41.6286 6.05364 39.4716C5.93479 38.7657 6.43413 38.1191 7.10184 38.0796L19.8259 37.327C20.3738 37.2946 20.8572 37.6883 21.0193 38.25C21.1502 38.7035 21.3028 39.1541 21.4776 39.6006Z" fill="#E7E8FF"/>
<path d="M9.73812 17.4721C10.0774 16.9032 10.7904 16.7946 11.2856 17.2152L16.1148 21.3173L20.944 25.4193C21.4008 25.8073 21.5063 26.5094 21.2302 27.0586C20.0529 29.3998 19.48 32.0901 19.6242 34.8207C19.6628 35.5522 19.1602 36.203 18.491 36.2055L6.41054 36.2506C5.8315 36.2527 5.34293 35.7632 5.31793 35.1299C5.06921 28.8283 6.64935 22.6503 9.73812 17.4721Z" fill="#0081E1"/>
<path d="M27.7472 19.4835C26.0429 20.2669 24.5496 21.3497 23.3067 22.6389C22.864 23.0981 22.1679 23.1968 21.704 22.8227L12.367 15.2928C11.8966 14.9135 11.8446 14.1947 12.2715 13.7086C15.0413 10.5551 18.4892 7.91802 22.4972 6.07572C27.1106 3.95515 31.9072 3.14453 36.4801 3.48899C37.0765 3.53391 37.4781 4.07357 37.393 4.68378L35.6561 17.1365C35.5639 17.797 34.942 18.2711 34.2954 18.2306C32.1498 18.0962 29.9067 18.4909 27.7472 19.4835Z" fill="#FFCE20"/>
</svg>
