<svg width="69" height="65" viewBox="0 0 69 65" fill="none" xmlns="http://www.w3.org/2000/svg">
<path fill-rule="evenodd" clip-rule="evenodd" d="M43.6401 2.01207C44.4662 0.637407 46.2498 0.196684 47.624 1.02769L55.7769 5.95818C57.151 6.78917 57.5952 8.57718 56.7691 9.95182C56.0924 11.0779 56.2679 12.5114 57.1049 13.5274C59.4508 16.375 61.2156 19.6101 62.3521 23.0427C62.7665 24.2942 63.8879 25.2065 65.2028 25.233C66.8089 25.2654 68.0878 26.596 68.0594 28.205L67.8912 37.7264C67.8628 39.3334 66.5394 40.6099 64.9353 40.5775C63.6226 40.551 62.4717 41.4157 62.0125 42.6468C61.3871 44.3237 60.5995 45.9668 59.6448 47.5555C58.6901 49.1442 57.6094 50.6099 56.4231 51.9476C55.5522 52.9298 55.3273 54.3546 55.9636 55.5067C56.7411 56.9147 56.2336 58.6848 54.8302 59.4603L46.5156 64.0548C45.1104 64.8313 43.3402 64.3179 42.5617 62.9082C41.9244 61.7541 40.5965 61.1852 39.2998 61.4019C35.7431 61.9964 32.0671 61.9412 28.4615 61.1896C27.175 60.9215 25.8293 61.4351 25.1526 62.5612C24.3265 63.9358 22.5429 64.3766 21.1688 63.5456L13.016 58.6152C11.6418 57.7841 11.1975 55.996 12.0237 54.6212C12.7004 53.4951 12.525 52.0615 11.6879 51.0454C9.34235 48.198 7.57772 44.9632 6.44127 41.5308C6.02689 40.2793 4.90531 39.3669 3.59032 39.3404C1.98412 39.308 0.705074 37.9772 0.733505 36.3681L0.901722 26.8473C0.930119 25.2401 2.25362 23.9635 3.85786 23.9959C5.17061 24.0224 6.3217 23.1577 6.7809 21.9265C7.40632 20.2496 8.19383 18.6065 9.14854 17.0179C10.1033 15.4292 11.184 13.9634 12.3703 12.6257C13.2413 11.6435 13.4661 10.2187 12.8299 9.06651C12.0524 7.65853 12.5598 5.88844 13.9633 5.11291L22.2778 0.518487C23.683 -0.258008 25.4533 0.255333 26.2318 1.66507C26.8691 2.8192 28.197 3.38815 29.4938 3.17143C33.0502 2.57706 36.7259 2.63219 40.3312 3.38365C41.6177 3.65179 42.9634 3.13813 43.6401 2.01207ZM48.6754 40.9219C43.9346 48.8107 33.6987 51.3399 25.813 46.571C17.9272 41.8021 15.3778 31.541 20.1187 23.6521C24.8595 15.7633 35.0954 13.2342 42.9811 18.0031C50.8669 22.772 53.4163 33.0331 48.6754 40.9219Z" fill="#0081E1"/>
</svg>
