<svg width="76" height="78" viewBox="0 0 76 78" fill="none" xmlns="http://www.w3.org/2000/svg">
<rect width="56.8473" height="56.6403" rx="2" transform="matrix(1 -0.000223752 -0.0234896 0.999724 10.0586 9.89062)" fill="#D9D9D9"/>
<path d="M47.0508 42.3594L52.0105 42.3442L51.3772 66.855L46.4175 66.8702L47.0508 42.3594Z" fill="#E7E8FF"/>
<path d="M23.0781 10.5742L28.0378 10.559L27.2652 40.4622L22.3055 40.4774L23.0781 10.5742Z" fill="#E7E8FF"/>
<path d="M9.71094 39.5312L66.5221 39.3571L66.3828 44.7495L9.57162 44.9236L9.71094 39.5312Z" fill="#E7E8FF"/>
<path fill-rule="evenodd" clip-rule="evenodd" d="M9.96496 12.082C9.99294 10.999 10.8231 10.1186 11.8192 10.1156L65.4741 9.95108C66.4702 9.94803 67.255 10.8235 67.227 11.9064L65.8465 65.3401C65.8185 66.423 64.9884 67.3034 63.9923 67.3065L10.3373 67.4709C9.34125 67.474 8.55647 66.5986 8.58444 65.5156L9.96496 12.082ZM11.7938 11.096C11.2958 11.0975 10.8807 11.5377 10.8667 12.0792L9.48621 65.5128C9.47222 66.0543 9.86461 66.492 10.3626 66.4905L64.0176 66.326C64.5157 66.3245 64.9307 65.8843 64.9447 65.3428L66.3252 11.9092C66.3392 11.3677 65.9468 10.93 65.4488 10.9315L11.7938 11.096Z" fill="#E7E8FF"/>
<path fill-rule="evenodd" clip-rule="evenodd" d="M38.4541 43.6781C40.0507 43.6732 47.3818 30.2542 47.5138 25.1431C47.6459 20.0321 43.9108 15.9006 39.1714 15.9151C34.4319 15.9296 30.4828 20.0847 30.3507 25.1957C30.2187 30.3068 36.2588 43.6848 38.4541 43.6781ZM38.807 30.0242C41.2346 30.0167 43.2577 27.8711 43.3259 25.2318C43.3941 22.5925 41.4815 20.459 39.054 20.4664C36.6265 20.4739 34.6033 22.6195 34.5351 25.2588C34.4669 27.8981 36.3795 30.0316 38.807 30.0242Z" fill="#FFCE20"/>
</svg>
