<svg width="73" height="75" viewBox="0 0 73 75" fill="none" xmlns="http://www.w3.org/2000/svg">
<g filter="url(#filter0_d_556_9351)">
<path d="M4.59766 13.1789C4.59766 12.2689 5.40603 11.5312 6.40321 11.5312H66.5884C67.5856 11.5312 68.3939 12.2689 68.3939 13.1789V64.8048C68.3939 65.7148 67.5856 66.4524 66.5884 66.4524H6.40321C5.40603 66.4524 4.59766 65.7148 4.59766 64.8048V13.1789Z" fill="white"/>
<path d="M31.6836 12.082H66.591C67.1929 12.082 67.7947 12.3566 67.7947 13.1804V37.3451H33.4891C32.492 37.3451 31.6836 36.6074 31.6836 35.6975V12.082Z" fill="#E7E8FF"/>
<path d="M34.0898 56.5695C34.0898 55.6595 34.8982 54.9219 35.8954 54.9219H52.7473C53.7444 54.9219 54.5528 55.6595 54.5528 56.5695V65.9058H34.0898V56.5695Z" fill="#E7E8FF"/>
<path d="M5.19922 41.7383H23.8566C24.8538 41.7383 25.6622 42.4759 25.6622 43.3859V65.903H6.40292C5.50014 65.903 5.19922 65.3538 5.19922 64.8046V41.7383Z" fill="#E7E8FF"/>
<path fill-rule="evenodd" clip-rule="evenodd" d="M4 13.1773C4 11.964 5.07783 10.9805 6.40741 10.9805H66.5926C67.9222 10.9805 69 11.964 69 13.1773V64.8032C69 66.0165 67.9222 67.0001 66.5926 67.0001H6.40741C5.07783 67.0001 4 66.0165 4 64.8032V13.1773ZM6.40741 12.0789C5.74262 12.0789 5.2037 12.5707 5.2037 13.1773V64.8032C5.2037 65.4099 5.74262 65.9016 6.40741 65.9016H66.5926C67.2574 65.9016 67.7963 65.4099 67.7963 64.8032V13.1773C67.7963 12.5707 67.2574 12.0789 66.5926 12.0789H6.40741Z" fill="#0081E1"/>
<path fill-rule="evenodd" clip-rule="evenodd" d="M37.4028 46.5758C40.594 46.5758 54.5556 24.0997 54.5556 15.5253C54.5556 6.9509 46.876 0 37.4028 0C27.9296 0 20.25 6.9509 20.25 15.5253C20.25 24.0997 33.0149 46.5758 37.4028 46.5758ZM37.4032 23.6697C42.2554 23.6697 46.1888 20.0803 46.1888 15.6525C46.1888 11.2248 42.2554 7.63539 37.4032 7.63539C32.5511 7.63539 28.6176 11.2248 28.6176 15.6525C28.6176 20.0803 32.5511 23.6697 37.4032 23.6697Z" fill="#FFCE20"/>
</g>
<defs>
<filter id="filter0_d_556_9351" x="0" y="0" width="73" height="75" filterUnits="userSpaceOnUse" color-interpolation-filters="sRGB">
<feFlood flood-opacity="0" result="BackgroundImageFix"/>
<feColorMatrix in="SourceAlpha" type="matrix" values="0 0 0 0 0 0 0 0 0 0 0 0 0 0 0 0 0 0 127 0" result="hardAlpha"/>
<feOffset dy="4"/>
<feGaussianBlur stdDeviation="2"/>
<feComposite in2="hardAlpha" operator="out"/>
<feColorMatrix type="matrix" values="0 0 0 0 0 0 0 0 0 0 0 0 0 0 0 0 0 0 0.25 0"/>
<feBlend mode="normal" in2="BackgroundImageFix" result="effect1_dropShadow_556_9351"/>
<feBlend mode="normal" in="SourceGraphic" in2="effect1_dropShadow_556_9351" result="shape"/>
</filter>
</defs>
</svg>
