<svg width="65" height="67" viewBox="0 0 65 67" fill="none" xmlns="http://www.w3.org/2000/svg">
<g clip-path="url(#clip0_560_10230)">
<path d="M0.453125 2.38939C0.453125 1.28982 1.46787 0.398438 2.71962 0.398438H62.28C63.5317 0.398438 64.5467 1.28982 64.5467 2.38939V64.6111C64.5467 65.7105 63.5317 66.6018 62.28 66.6018H2.71962C1.46787 66.6018 0.453125 65.7105 0.453125 64.6111V2.38939Z" fill="white"/>
<path fill-rule="evenodd" clip-rule="evenodd" d="M0 2.38914C0 1.06966 1.21769 0 2.7198 0H62.2804C63.7822 0 65 1.06965 65 2.38914V64.611C65 65.9301 63.7822 67 62.2804 67H2.7198C1.21769 67 0 65.9301 0 64.611V2.38914ZM2.7198 0.796378C1.7184 0.796378 0.906599 1.50948 0.906599 2.38914V64.611C0.906599 65.4906 1.7184 66.2035 2.7198 66.2035H62.2804C63.2814 66.2035 64.0936 65.4906 64.0936 64.611V2.38914C64.0936 1.50948 63.2814 0.796378 62.2804 0.796378H2.7198Z" fill="#0081E1"/>
<path d="M0.453125 2.38939C0.453125 1.28982 1.46787 0.398438 2.71962 0.398438H62.28C63.5317 0.398438 64.5467 1.28982 64.5467 2.38939V9.73487H0.453125V2.38939Z" fill="#0081E1"/>
<path fill-rule="evenodd" clip-rule="evenodd" d="M15.1367 44.5454C15.1367 43.2259 16.3544 42.1562 17.8565 42.1562H21.6976C23.1996 42.1562 24.4174 43.2259 24.4174 44.5454V58.2307H15.1367V44.5454ZM17.8565 42.9526C16.8551 42.9526 16.0433 43.6657 16.0433 44.5454V57.4342H23.5107V44.5454C23.5107 43.6657 22.699 42.9526 21.6976 42.9526H17.8565Z" fill="#E7E8FF"/>
<path d="M30.0859 36.6237C30.0859 35.5242 31.1007 34.6328 32.3524 34.6328H36.1934C37.4452 34.6328 38.4599 35.5242 38.4599 36.6237V57.8323H30.0859V36.6237Z" fill="#E7E8FF"/>
<path d="M44.5781 27.569C44.5781 26.4695 45.5929 25.5781 46.8446 25.5781H50.6856C51.9374 25.5781 52.9519 26.4695 52.9519 27.569V57.831H44.5781V27.569Z" fill="#FFCE20"/>
<path fill-rule="evenodd" clip-rule="evenodd" d="M9.01953 55.9818V25.5781H9.92615V55.9818C9.92615 56.8613 10.7379 57.5742 11.7393 57.5742H55.3688V58.3707H11.7393C10.2372 58.3707 9.01953 57.3014 9.01953 55.9818Z" fill="#FFCE20"/>
<path fill-rule="evenodd" clip-rule="evenodd" d="M29.7627 17.773H9.63281V16.9766H29.7627V17.773Z" fill="#FFCE20"/>
<path d="M10.7095 4.904C10.7095 5.98578 9.71122 6.86267 8.47976 6.86267C7.2483 6.86267 6.25 5.98578 6.25 4.904C6.25 3.82225 7.2483 2.94531 8.47976 2.94531C9.71122 2.94531 10.7095 3.82225 10.7095 4.904Z" fill="white"/>
<path d="M18.1431 4.904C18.1431 5.98578 17.1448 6.86267 15.9134 6.86267C14.6819 6.86267 13.6836 5.98578 13.6836 4.904C13.6836 3.82225 14.6819 2.94531 15.9134 2.94531C17.1448 2.94531 18.1431 3.82225 18.1431 4.904Z" fill="white"/>
<path d="M25.5767 4.904C25.5767 5.98578 24.5784 6.86267 23.3469 6.86267C22.1155 6.86267 21.1172 5.98578 21.1172 4.904C21.1172 3.82225 22.1155 2.94531 23.3469 2.94531C24.5784 2.94531 25.5767 3.82225 25.5767 4.904Z" fill="white"/>
</g>
<defs>
<clipPath id="clip0_560_10230">
<rect width="65" height="67" fill="white"/>
</clipPath>
</defs>
</svg>
