<svg width="82" height="82" viewBox="0 0 82 82" fill="none" xmlns="http://www.w3.org/2000/svg">
<g filter="url(#filter0_d_558_10169)">
<path d="M41.0077 67.0076C58.1285 67.0076 72.0076 53.1285 72.0076 36.0077C72.0076 18.8869 58.1285 5.00781 41.0077 5.00781C23.8869 5.00781 10.0078 18.8869 10.0078 36.0077C10.0078 53.1285 23.8869 67.0076 41.0077 67.0076Z" fill="#1B76FF"/>
</g>
<path d="M41.5 71C59.4493 71 74 56.0016 74 37.5C74 18.9984 59.4493 4 41.5 4C23.5507 4 9 18.9984 9 37.5C9 56.0016 23.5507 71 41.5 71Z" fill="#1B76FF"/>
<g filter="url(#filter1_d_558_10169)">
<path d="M55.8611 36.2207C56.0148 35.7151 56.0483 35.1803 55.9588 34.6592C55.8692 34.1383 55.6592 33.6456 55.3455 33.2207C55.0318 32.7959 54.4961 32.8122 54.0254 32.5744C53.5546 32.3366 53.0349 32.2128 52.5078 32.2129L45.7899 32.4041C45.531 32.4041 45.2763 32.3384 45.0496 32.2129C44.8228 32.0875 43.8793 31.5104 43.7412 31.2906C43.6031 31.071 43.5229 30.8197 43.5078 30.5605C43.4928 30.3012 43.396 29.2421 43.5078 29.0078L45.4173 25.1001C45.5779 24.6217 45.7624 24.3577 45.6722 23.861C45.5822 23.3644 45.3679 22.8988 45.0496 22.5078C44.7554 22.1443 44.9756 22.4751 44.5508 22.2808C44.1261 22.0867 43.6623 21.9938 43.1957 22.0095C42.7292 22.0253 42.2726 22.1491 41.8618 22.3715C41.451 22.5939 41.0972 22.9087 40.828 23.2912L34.8294 31.8157C34.6877 32.0166 34.4999 32.1806 34.282 32.2938C34.0642 32.4071 33.8224 32.4663 33.577 32.4666C33.426 32.4666 33.2812 32.5268 33.1745 32.6338C33.0678 32.7409 33.0078 32.8861 33.0078 33.0375V46.9576C33.0078 47.0731 33.0402 47.1863 33.1014 47.2843C33.1625 47.3822 33.25 47.4609 33.3537 47.5113C37.8925 49.7162 39.4001 50.0078 43.0961 50.0078C43.5218 50.0078 45.9421 49.9833 46.8265 49.9833C50.114 49.9833 52.3013 48.0699 53.5194 44.103L55.8501 36.2663L55.8611 36.2207Z" fill="white"/>
<path d="M29.0078 33.4245H28.9856C28.935 33.0293 28.7805 32.6705 28.5494 32.4112C28.3182 32.152 28.0252 32.0092 27.7221 32.0078H26.4363C26.3227 32.0078 26.2137 32.0676 26.1333 32.1738C26.0529 32.2801 26.0078 32.4242 26.0078 32.5745V48.4412C26.0078 48.5915 26.0529 48.7355 26.1333 48.8419C26.2137 48.9481 26.3227 49.0078 26.4363 49.0078H27.7221C28.0631 49.0078 28.3901 48.8287 28.6313 48.5099C28.8723 48.1911 29.0078 47.7587 29.0078 47.3078V33.4245Z" fill="white"/>
</g>
<path d="M56.6838 36.2373C56.8509 35.6894 56.8873 35.1099 56.79 34.5453C56.6926 33.9808 56.4643 33.4469 56.1234 32.9865C55.7824 32.5261 55.3382 32.1521 54.8265 31.8944C54.3148 31.6367 53.75 31.5026 53.1771 31.5027H45.737C45.4556 31.5027 45.1788 31.4315 44.9324 31.2955C44.6859 31.1596 44.478 30.9634 44.3279 30.7253C44.1778 30.4873 44.0906 30.215 44.0742 29.9341C44.0579 29.6531 44.113 29.3726 44.2345 29.1187L46.1385 25.128C46.3131 24.6096 46.3532 24.0553 46.2552 23.5171C46.1573 22.9789 45.9244 22.4744 45.5784 22.0507C45.2586 21.6568 44.852 21.3423 44.3903 21.1318C43.9286 20.9214 43.4245 20.8208 42.9174 20.8378C42.4103 20.8549 41.9139 20.9891 41.4674 21.2301C41.0209 21.4711 40.6364 21.8122 40.3438 22.2267L33.8237 31.464C33.6696 31.6817 33.4656 31.8594 33.2288 31.9821C32.992 32.1048 32.7292 32.169 32.4625 32.1693C32.2984 32.1693 32.141 32.2345 32.025 32.3505C31.909 32.4666 31.8438 32.6239 31.8438 32.788V47.872C31.8438 47.9972 31.8789 48.1199 31.9454 48.2261C32.0119 48.3322 32.107 48.4174 32.2197 48.472C37.153 50.8613 38.7918 51.1773 42.8091 51.1773C43.2718 51.1773 45.9025 51.1507 46.8638 51.1507C50.4371 51.1507 52.8145 49.0773 54.1385 44.7787L56.6717 36.2867L56.6838 36.2373Z" fill="white"/>
<path d="M29.8424 32.1745H29.8078C29.7292 31.7096 29.4889 31.2874 29.1293 30.9824C28.7697 30.6775 28.3139 30.5094 27.8424 30.5078H25.8424C25.6656 30.5078 25.4961 30.5781 25.371 30.7031C25.246 30.8281 25.1758 30.9977 25.1758 31.1745V49.8412C25.1758 50.018 25.246 50.1875 25.371 50.3126C25.4961 50.4376 25.6656 50.5078 25.8424 50.5078H27.8424C28.3729 50.5078 28.8816 50.2971 29.2567 49.922C29.6317 49.547 29.8424 49.0383 29.8424 48.5078V32.1745Z" fill="white"/>
<defs>
<filter id="filter0_d_558_10169" x="0.0078125" y="0.0078125" width="82" height="82" filterUnits="userSpaceOnUse" color-interpolation-filters="sRGB">
<feFlood flood-opacity="0" result="BackgroundImageFix"/>
<feColorMatrix in="SourceAlpha" type="matrix" values="0 0 0 0 0 0 0 0 0 0 0 0 0 0 0 0 0 0 127 0" result="hardAlpha"/>
<feOffset dy="5"/>
<feGaussianBlur stdDeviation="5"/>
<feColorMatrix type="matrix" values="0 0 0 0 0.104167 0 0 0 0 0.4625 0 0 0 0 1 0 0 0 0.27 0"/>
<feBlend mode="normal" in2="BackgroundImageFix" result="effect1_dropShadow_558_10169"/>
<feBlend mode="normal" in="SourceGraphic" in2="effect1_dropShadow_558_10169" result="shape"/>
</filter>
<filter id="filter1_d_558_10169" x="16.0078" y="15.0863" width="50" height="48" filterUnits="userSpaceOnUse" color-interpolation-filters="sRGB">
<feFlood flood-opacity="0" result="BackgroundImageFix"/>
<feColorMatrix in="SourceAlpha" type="matrix" values="0 0 0 0 0 0 0 0 0 0 0 0 0 0 0 0 0 0 127 0" result="hardAlpha"/>
<feOffset dy="3.07847"/>
<feGaussianBlur stdDeviation="5"/>
<feColorMatrix type="matrix" values="0 0 0 0 0.121042 0 0 0 0 0.143938 0 0 0 0 0.35 0 0 0 0.17 0"/>
<feBlend mode="normal" in2="BackgroundImageFix" result="effect1_dropShadow_558_10169"/>
<feBlend mode="normal" in="SourceGraphic" in2="effect1_dropShadow_558_10169" result="shape"/>
</filter>
</defs>
</svg>
