<svg width="65" height="67" viewBox="0 0 65 67" fill="none" xmlns="http://www.w3.org/2000/svg">
<path d="M31.2601 20.0602C28.635 25.7823 20.8886 27.6555 17.3436 27.8769L16.9567 52.1264C17.7988 52.9575 20.033 55.3167 22.2338 58.1047C23.5139 60.2918 40.6332 59.9725 49.0328 59.5394C50.8847 59.0581 54.7289 57.849 55.2898 56.8633C55.9911 55.6311 61.682 33.1529 58.4816 27.6849C55.9213 23.3105 45.8718 23.9625 41.167 24.8352C44.1116 20.4563 43.9229 13.0772 43.0247 7.33172C42.546 4.26985 39.4258 2.81537 36.8238 4.1846C35.0611 5.11219 34.0297 7.11819 33.8919 9.21615C33.6964 12.1935 33.0139 16.2376 31.2601 20.0602Z" fill="#FFCE20"/>
<path d="M0.007529 24.7478C0.00337085 22.7254 1.53106 21.0823 3.41971 21.0779L15.7511 21.0488C17.6398 21.0444 19.1742 22.6802 19.1784 24.7026L19.243 56.1515C19.2472 58.1739 17.7195 59.817 15.8308 59.8214L3.49943 59.8505C1.61077 59.8549 0.076347 58.2191 0.0721889 56.1966L0.007529 24.7478Z" fill="#0081E1"/>
</svg>
